<svg width="44" height="50" viewBox="0 0 44 50" fill="none" xmlns="http://www.w3.org/2000/svg">
<g clip-path="url(#clip0_541_85)">
<path d="M13.6044 16.871L13.8961 16.846C14.0017 16.8344 14.1027 16.7964 14.1898 16.7356L14.1877 16.7377C14.4669 17.7002 14.8086 18.7127 15.2356 19.7731C15.7836 21.1606 16.3231 22.3002 16.9273 23.4002L16.844 23.2335C16.794 23.9919 16.7336 24.771 16.6544 25.5252C16.6197 25.9701 16.5294 26.409 16.3856 26.8314L16.3961 26.7939C16.3711 26.8044 16.3356 31.1273 16.3356 31.1273C16.3364 32.4686 16.7885 33.7707 17.6191 34.8239C18.4497 35.8771 19.6106 36.6202 20.9148 36.9335L20.9565 36.9419C21.0144 36.7915 21.1164 36.6621 21.2491 36.5706C21.3818 36.4792 21.5391 36.4299 21.7002 36.4294H22.8961C23.0558 36.4315 23.2113 36.4807 23.3432 36.5707C23.4751 36.6608 23.5775 36.7877 23.6377 36.9356L23.6398 36.9419C24.9551 36.6378 26.1292 35.8987 26.972 34.8441C27.8148 33.7896 28.277 32.4814 28.2836 31.1314C28.2836 31.1314 28.2106 26.8252 28.1731 26.796C28.049 26.3933 27.9639 25.9796 27.919 25.5606L27.9169 25.5294C27.844 24.771 27.7961 24.0106 27.7273 23.2377C28.2419 22.3085 28.7815 21.171 29.2565 19.9981L29.3356 19.7773C29.7627 18.7169 30.094 17.7064 30.3836 16.7419C30.4692 16.8026 30.5688 16.8406 30.6731 16.8523H30.6752L30.969 16.8773C31.3231 16.9148 31.6356 16.6231 31.6648 16.171L31.9815 12.1481V12.1439C31.9813 11.9821 31.9222 11.8258 31.8153 11.7042C31.7083 11.5827 31.5608 11.5043 31.4002 11.4835H31.3606C31.6381 9.38871 31.4662 7.25883 30.8565 5.23561L30.8836 5.34186C30.2959 4.03711 29.4022 2.89337 28.2783 2.0077C27.1543 1.12203 25.8333 0.520571 24.4273 0.254362L24.3731 0.246029C23.6915 0.109358 22.9994 0.0312951 22.3044 0.0126953H22.2606C21.5336 0.0257143 20.8095 0.108031 20.0981 0.258529L20.1731 0.246029C18.7679 0.506864 17.4456 1.10052 16.3169 1.97732C15.1882 2.85412 14.2859 3.98853 13.6856 5.28561L13.6627 5.34186C13.0629 7.35729 12.9031 9.47805 13.194 11.5606L13.1856 11.4835C13.0247 11.5009 12.8758 11.5771 12.7674 11.6974C12.659 11.8177 12.5987 11.9737 12.5981 12.1356V12.1502L12.9148 16.1731C12.944 16.6356 13.2606 16.9148 13.6023 16.8773L13.6044 16.871Z" fill="black"/>
<path d="M44.6164 43.4957C44.4706 37.1624 43.8373 35.729 43.4956 34.7582C43.3602 34.3686 43.2498 31.7353 38.8998 30.027C36.2331 28.977 32.7914 28.9561 29.8789 27.7249V31.1499C29.8759 32.9057 29.2623 34.6059 28.1434 35.959C27.0244 37.3121 25.4697 38.2339 23.7456 38.5665L23.6977 38.5749C23.6665 38.7597 23.5714 38.9276 23.429 39.0495C23.2866 39.1713 23.1059 39.2393 22.9185 39.2415H22.881V41.8249C22.881 43.0371 23.3626 44.1997 24.2198 45.0569C25.077 45.9141 26.2396 46.3957 27.4518 46.3957C28.6641 46.3957 29.8267 45.9141 30.6839 45.0569C31.5411 44.1997 32.0227 43.0371 32.0227 41.8249V40.0207C31.3935 39.9284 30.8199 39.6088 30.4105 39.1222C30.0011 38.6356 29.7842 38.0159 29.8008 37.3802C29.8174 36.7445 30.0665 36.1369 30.5008 35.6724C30.9351 35.2079 31.5246 34.9187 32.1578 34.8595C32.7909 34.8003 33.4238 34.9752 33.9368 35.351C34.4497 35.7269 34.8071 36.2778 34.9413 36.8994C35.0756 37.5209 34.9773 38.1702 34.6653 38.7242C34.3532 39.2783 33.8488 39.6988 33.2477 39.9061L33.2289 39.9124V41.9228C33.2289 43.4555 32.6201 44.9255 31.5362 46.0093C30.4524 47.0931 28.9825 47.702 27.4498 47.702C25.917 47.702 24.4471 47.0931 23.3633 46.0093C22.2795 44.9255 21.6706 43.4555 21.6706 41.9228V41.8186V41.8228V39.2165C21.4922 39.2044 21.3231 39.1323 21.1908 39.0121C21.0584 38.8919 20.9706 38.7305 20.9414 38.554V38.5499C19.2155 38.2207 17.6577 37.3016 16.5349 35.9501C15.4122 34.5985 14.7943 32.8986 14.7873 31.1415V27.6895C11.8623 28.9457 8.39976 28.9707 5.71851 30.0228C1.35601 31.729 1.25601 34.3561 1.12268 34.752C0.789345 35.727 0.147678 37.154 0.00184482 43.4915C-0.0231552 44.3249 0.00184493 45.6019 2.51434 46.7186C7.98518 48.8645 15.0331 49.5311 21.981 50.0103H22.6477C29.6102 49.5353 36.6477 48.8707 42.1143 46.7186C44.6164 45.6082 44.6393 44.3374 44.6164 43.4957ZM14.031 40.9124H11.4352V43.5186H9.58101V40.9207H6.98518V39.0665H9.58101V36.4707H11.4352V39.0665H14.031V40.9124Z" fill="black"/>
<path d="M33.8022 37.4275C33.8019 37.0558 33.654 36.6973 33.391 36.4345C33.128 36.1718 32.7714 36.0243 32.3996 36.0244C32.0278 36.0246 31.6714 36.1723 31.4085 36.4353C31.1457 36.6982 30.998 37.0547 30.998 37.4265C30.998 37.7983 31.1457 38.1548 31.4085 38.4177C31.6714 38.6807 32.0278 38.8284 32.3996 38.8286C32.7714 38.8287 33.128 38.6812 33.391 38.4185C33.654 38.1557 33.8019 37.7993 33.8022 37.4275Z" fill="black"/>
</g>
<defs>
<clipPath id="clip0_541_85">
<rect width="43.75" height="50" fill="white"/>
</clipPath>
</defs>
</svg>
