<svg width="30552" height="28446" viewBox="0 0 30552 28446" fill="none" xmlns="http://www.w3.org/2000/svg">
<path d="M15275.5 28445.1C23712 28445.1 30551 24943.9 30551 20624.9C30551 16306 23712 12804.8 15275.5 12804.8C6839.08 12804.8 0 16306 0 20624.9C0 24943.9 6839.08 28445.1 15275.5 28445.1Z" fill="#FAFAFA"/>
<path d="M23984 25673.2C26282.6 25673.2 28145.9 24522.2 28145.9 23102.4C28145.9 21682.5 26282.6 20531.5 23984 20531.5C21685.4 20531.5 19822.1 21682.5 19822.1 23102.4C19822.1 24522.2 21685.4 25673.2 23984 25673.2Z" fill="#E0E0E0"/>
<path d="M14104.3 18489.2L11437.4 16950C11393.2 16927.3 11344.1 16915.5 11294.4 16915.5C11244.7 16915.5 11195.6 16927.3 11151.4 16950L2312.32 22054C2295 22059.8 2279.93 22070.9 2269.26 22085.7C2258.59 22100.5 2252.84 22118.3 2252.84 22136.6C2252.84 22154.9 2258.59 22172.7 2269.26 22187.5C2279.93 22202.3 2295 22213.4 2312.32 22219.2L4978.56 23759C5022.98 23781.2 5071.95 23792.7 5121.6 23792.7C5171.25 23792.7 5220.22 23781.2 5264.64 23759L6052.48 23304L13315.8 19121.6L14105 18657.6C14122.8 18651.8 14138.3 18640.5 14149.3 18625.4C14160.4 18610.2 14166.2 18591.9 14166.2 18573.2C14166.1 18554.4 14160.1 18536.2 14149 18521.1C14137.8 18506 14122.2 18494.9 14104.3 18489.2Z" fill="#E0E0E0"/>
<path d="M26092.8 22146.2L25680.6 21927.3C25680.6 21927.3 25721 19915.2 26138.2 18356.8C26565.8 16761.2 27809.9 14998.7 28985.6 15659.2C30161.3 16319.6 28071.7 17677.1 27443.2 18987.2C26814.7 20297.2 26092.8 22146.2 26092.8 22146.2Z" fill="#132346"/>
<path opacity="0.15" d="M26092.8 22146.2L25680.6 21927.3C25680.6 21927.3 25721 19915.2 26138.2 18356.8C26565.8 16761.2 27809.9 14998.7 28985.6 15659.2C30161.3 16319.6 28071.7 17677.1 27443.2 18987.2C26814.7 20297.2 26092.8 22146.2 26092.8 22146.2Z" fill="black"/>
<path d="M26038.4 21668.8C26032.9 21668.6 26027.6 21667.3 26022.6 21665.1C26017.6 21662.9 26013.1 21659.7 26009.4 21655.7C26005.6 21651.7 26002.7 21647 26000.8 21641.9C25998.8 21636.8 25997.9 21631.3 25998.1 21625.9C26086.4 18503.3 27451.5 16596.8 28593.9 15913.2C28603.4 15907.5 28614.8 15905.9 28625.5 15908.6C28636.3 15911.3 28645.5 15918.1 28651.2 15927.6C28656.9 15937.1 28658.6 15948.5 28655.9 15959.3C28653.2 15970 28646.3 15979.2 28636.8 15984.9C27512.3 16657.6 26169 18539.2 26081.3 21627.8C26081.2 21633.3 26080 21638.8 26077.8 21643.8C26075.6 21648.9 26072.4 21653.4 26068.4 21657.3C26064.4 21661.1 26059.7 21664 26054.6 21666C26049.4 21668 26043.9 21668.9 26038.4 21668.8Z" fill="white"/>
<path d="M26279 22242.2L25911 22053.4C25911 22053.4 25956.5 21065.2 26713.6 19777.6C27385.6 18633.9 28747.5 17737.9 29319.7 18057.2C29763.8 18304.3 29866.2 18845.7 29440.6 19206C29015 19566.4 27050.2 20322.2 26279 22242.2Z" fill="#132346"/>
<path d="M26131.2 21926.7C26195.2 21939.5 26217.6 21781.4 26230.4 21741.1C26254.7 21665.6 26280.3 21591.3 26308.5 21517.1C26363.6 21372.7 26426.2 21231.3 26496 21093.4C26630.4 20828.2 26787.8 20575.3 26966.4 20337.6C27133.3 20115 27315.3 19904.2 27511 19706.5C27687.7 19528.8 27873.5 19360.4 28067.8 19202.2C28230.4 19069.1 28399.4 18943 28572.8 18824.6C28700.8 18737.6 28828.8 18654.4 28962.6 18576.3C29032.3 18535.3 29102.1 18495 29174.4 18457.9L29194.9 18447.6C29206.3 18442 29215.1 18432.1 29219.2 18420C29223.4 18408 29222.6 18394.8 29217 18383.3C29211.4 18371.9 29201.4 18363.1 29189.4 18359C29177.3 18354.8 29164.1 18355.6 29152.6 18361.2C29107.8 18383 29065 18407.3 29024.6 18431.6C28912 18495.6 28801.9 18559.6 28693.8 18631.3C28533.3 18735 28376.7 18844.6 28224 18960.3C28034.6 19103.6 27852.6 19255.7 27678.1 19416.6C27479.2 19598.8 27291.9 19793.3 27117.4 19999C26928.3 20220.8 26757.1 20457.3 26605.4 20706.2C26444.1 20969.7 26309.1 21248.3 26202.2 21538.2C26182.2 21594.1 26163 21649.8 26144.6 21705.2C26117.7 21760.6 26101.4 21820.5 26096.6 21881.9C26097.4 21891.6 26100.9 21901 26106.7 21908.9C26112.4 21916.8 26120.2 21922.9 26129.3 21926.7H26131.2Z" fill="white"/>
<path d="M5246.08 20391.3C5246.08 20391.3 5256.32 19136.3 4762.88 18097.6C4269.44 17058.8 3497.6 16356.1 2714.88 16195.5C1932.16 16034.8 1210.24 16681.2 1991.04 17283.5C2771.84 17885.7 4206.08 18582.7 4664.32 20533.4L5246.08 20391.3Z" fill="#132346"/>
<path opacity="0.15" d="M5246.08 20391.3C5246.08 20391.3 5256.32 19136.3 4762.88 18097.6C4269.44 17058.8 3497.6 16356.1 2714.88 16195.5C1932.16 16034.8 1210.24 16681.2 1991.04 17283.5C2771.84 17885.7 4206.08 18582.7 4664.32 20533.4L5246.08 20391.3Z" fill="black"/>
<path d="M4919.68 20174.4C4911.52 20174.4 4903.66 20171.3 4897.71 20165.7C4891.76 20160.1 4888.17 20152.4 4887.68 20144.3C4767.36 18135.3 3112.32 16829.1 2294.4 16606.4C2286.28 16604.1 2279.37 16598.7 2275.18 16591.4C2270.98 16584.1 2269.84 16575.5 2272 16567.3C2274.25 16559 2279.68 16552 2287.11 16547.6C2294.54 16543.3 2303.37 16542.1 2311.68 16544.3C3143.68 16771.5 4829.44 18099.5 4951.68 20140.4C4951.88 20148.8 4948.89 20157 4943.31 20163.3C4937.73 20169.6 4929.97 20173.5 4921.6 20174.4H4919.68Z" fill="white"/>
<path d="M5347.2 22114.2C5505.75 21914.1 5612.14 21677.8 5656.82 21426.5C5701.5 21175.1 5683.08 20916.6 5603.2 20674.2C5556.74 20527.8 5482.42 20391.7 5384.32 20273.6C5305.6 20180.8 5192.32 20132.8 5100.16 20055.3C4901.76 19890.8 4671.36 19716.1 4599.68 19455C4542.08 19247 4554.24 19049.9 4439.04 18854.7C4371.16 18732.4 4263.07 18637.5 4133.12 18585.9C3963.52 18521.9 3776.64 18564.1 3597.44 18585.9C3341.44 18614.7 3149.44 18526.4 2928 18408.6C2684.16 18280.6 2399.36 18179.5 2135.04 18258.2C2049.08 18283.7 1969.42 18326.9 1901.24 18385.1C1833.06 18443.4 1777.88 18515.3 1739.26 18596.2C1700.64 18677.1 1679.46 18765.2 1677.08 18854.8C1674.7 18944.5 1691.17 19033.6 1725.44 19116.4C1784.32 19259.8 1893.12 19376.3 1973.12 19509.4C2053.12 19642.5 2095.36 19794.8 2037.12 19940.1C1992.32 20047.6 1909.12 20132.1 1875.84 20241.6C1781.12 20529.6 1834.24 20785.6 2120.32 20934C2419.2 21087 2888.32 20971.8 3038.08 21347.5C3094.4 21490.2 3096.32 21648.3 3127.04 21798.7C3190.1 22101.4 3366.08 22368.6 3619.2 22546.2C3962.88 22784.9 4429.44 22726.7 4785.92 22560.3C5004.93 22456.9 5197.04 22304.2 5347.2 22114.2Z" fill="#132346"/>
<path d="M2652.8 20296.6C2659.79 20297.8 2666.98 20296.7 2673.28 20293.4C2925.35 20196 3195.87 20155.5 3465.42 20175C3734.97 20194.5 3996.87 20273.4 4232.32 20406C4240.38 20410.3 4249.83 20411.3 4258.59 20408.6C4267.35 20406 4274.7 20400 4279.04 20392C4281.29 20388 4282.72 20383.7 4283.26 20379.2C4283.8 20374.7 4283.43 20370.1 4282.18 20365.8C4280.93 20361.4 4278.82 20357.3 4275.97 20353.8C4273.12 20350.3 4269.59 20347.4 4265.6 20345.2C4020.98 20207.9 3748.96 20126.4 3469.1 20106.7C3189.24 20087 2908.49 20129.6 2647.04 20231.3C2640.89 20234.7 2635.92 20239.9 2632.77 20246.1C2629.63 20252.4 2628.46 20259.5 2629.44 20266.4C2630.41 20273.3 2633.47 20279.8 2638.21 20285C2642.96 20290.2 2649.16 20293.8 2656 20295.3L2652.8 20296.6Z" fill="white"/>
<path d="M4887.68 22125.1C4879.3 22125.2 4871.19 22122.1 4865.08 22116.4C4858.98 22110.6 4855.37 22102.7 4855.04 22094.4C4795.52 20648 3343.36 19118.4 2369.92 18702.4C2365.99 18700.7 2362.42 18698.4 2359.41 18695.4C2356.41 18692.4 2354.03 18688.8 2352.43 18684.9C2350.82 18680.9 2350.01 18676.7 2350.04 18672.5C2350.08 18668.2 2350.96 18664 2352.64 18660.1C2356.14 18652.2 2362.62 18646.1 2370.65 18643C2378.68 18639.8 2387.62 18640 2395.52 18643.5C3384.32 19067.2 4858.88 20622.4 4919.68 22093.1C4919.85 22097.4 4919.17 22101.6 4917.69 22105.7C4916.21 22109.7 4913.94 22113.4 4911.03 22116.5C4908.12 22119.7 4904.61 22122.2 4900.72 22124C4896.82 22125.8 4892.61 22126.8 4888.32 22127L4887.68 22125.1Z" fill="white"/>
<path d="M12903 1457.55L5659.52 5638.03C5587.79 5684.86 5528.18 5748.02 5485.57 5822.33C5442.96 5896.64 5418.57 5979.99 5414.4 6065.55V23123.5C5414.4 23279.6 5524.48 23343 5659.52 23264.3L12903 19082.5C12974.3 19035.8 13033.6 18973 13076.2 18899.2C13118.7 18825.4 13143.4 18742.6 13148.2 18657.6V1597.07C13148.2 1440.91 13038.1 1376.91 12903 1457.55ZM12795.5 17393.6C12795.5 17527.3 12701.4 17612.4 12585.6 17679L5952.64 21510C5837.44 21574 5742.72 21522.8 5742.72 21388.4V7202.83C5742.75 7129.48 5762.11 7057.44 5798.85 6993.95C5835.59 6930.47 5888.42 6877.79 5952 6841.23L12585 3009.55C12606.2 2997.19 12630.4 2990.65 12655 2990.59C12679.6 2990.53 12703.8 2996.96 12725.2 3009.22C12746.5 3021.48 12764.3 3039.14 12776.6 3060.44C12789 3081.73 12795.5 3105.9 12795.5 3130.51V17393.6Z" fill="#455A64"/>
<path d="M12795.5 17393.6C12795.5 17527.3 12701.4 17612.4 12585.6 17679L5952.64 21510C5837.44 21574 5742.72 21522.8 5742.72 21388.4V7202.83C5742.75 7129.48 5762.11 7057.44 5798.85 6993.95C5835.59 6930.47 5888.42 6877.79 5952 6841.23L12585 3009.55C12606.2 2997.19 12630.4 2990.65 12655 2990.59C12679.6 2990.53 12703.8 2996.96 12725.2 3009.22C12746.5 3021.48 12764.3 3039.14 12776.6 3060.44C12789 3081.73 12795.5 3105.9 12795.5 3130.51V17393.6Z" fill="#263238"/>
<path d="M5952.64 21510L12585.6 17680.3C12632.2 17655.1 12675.2 17623.9 12713.6 17587.5L5742.72 13661.7V21388.4C5742.72 21522.8 5837.44 21576.6 5952.64 21510Z" fill="#37474F"/>
<path d="M12258.6 17144.6V3198.36L5952 6841.24C5888.42 6877.8 5835.59 6930.47 5798.85 6993.96C5762.11 7057.44 5742.75 7129.49 5742.72 7202.84V21071L12048.6 17430C12164.5 17363.5 12258.6 17278.4 12258.6 17144.6Z" fill="#132346"/>
<path d="M5628.8 23281.6C5555.66 23312.4 5476.69 23327 5397.36 23324.3C5318.02 23321.7 5240.2 23301.9 5169.28 23266.2L4888.96 23104.3C4817.43 23057.9 4757.87 22995.4 4715.16 22921.6C4672.45 22847.9 4647.79 22765.1 4643.2 22680V5617.55C4644.82 5554.32 4659.18 5492.06 4685.44 5434.51C4694.4 5414.67 4704 5395.47 4714.88 5375.63L5482.88 5823.63C5466.74 5852.48 5452.63 5882.42 5440.64 5913.23C5422 5961.7 5411.83 6013 5410.56 6064.91V23123.5C5414.4 23267.5 5507.84 23332.8 5628.8 23281.6Z" fill="#263238"/>
<path d="M9497.6 19844.8C9654.4 19844.8 9671.04 20020.8 9671.04 20096.3C9661.67 20247.6 9617.32 20394.7 9541.47 20525.9C9465.62 20657.2 9360.34 20769.1 9233.92 20852.8C9183.2 20885 9124.98 20903.5 9064.96 20906.5C8908.16 20906.5 8891.52 20730.5 8891.52 20655C8900.97 20503.7 8945.28 20356.6 9021 20225.3C9096.72 20093.9 9201.79 19981.9 9328 19897.9C9379.16 19866.2 9437.5 19847.9 9497.6 19844.8Z" fill="#132346"/>
<path d="M9276.16 3819.79C9340.16 3781.39 9395.84 3812.11 9395.84 3888.91C9393.52 3930.43 9381.48 3970.83 9360.69 4006.84C9339.91 4042.86 9310.95 4073.49 9276.16 4096.27C9212.16 4134.03 9155.84 4103.31 9155.84 4027.15C9158.04 3985.53 9170.09 3945.02 9191.01 3908.97C9211.93 3872.92 9241.11 3842.35 9276.16 3819.79Z" fill="#263238"/>
<path d="M8503.04 4830.35C8561.92 4796.43 8609.28 4823.95 8609.28 4894.35C8607.33 4931.18 8596.69 4967.03 8578.22 4998.95C8559.76 5030.88 8533.99 5057.98 8503.04 5078.03C8444.16 5111.95 8396.8 5084.43 8396.8 5014.03C8398.86 4977.23 8409.54 4941.42 8428 4909.51C8446.46 4877.6 8472.16 4850.48 8503.04 4830.35Z" fill="#263238"/>
<path d="M8858.24 4620.43L10048 3933.71C10112 3895.95 10165.8 3922.83 10165.8 3993.23C10162.6 4032.77 10150.4 4071.04 10129.9 4105.02C10109.5 4139.01 10081.5 4167.78 10048 4189.07L8858.24 4875.79C8794.24 4913.55 8740.48 4886.67 8740.48 4816.27C8743.6 4776.74 8755.86 4738.47 8776.3 4704.48C8796.74 4670.5 8824.79 4641.72 8858.24 4620.43Z" fill="#263238"/>
<path d="M13145.6 1558.03C13127.7 1430.03 13025.9 1384.59 12903.7 1455.63L5658.88 5638.03C5586.39 5683.04 5526.84 5746.11 5486.08 5821.07L4718.08 5373.07C4759.48 5298.71 4819.18 5236.15 4891.52 5191.31L12131.8 1009.55C12207.8 971.04 12291.8 950.969 12377 950.969C12462.1 950.969 12546.1 971.04 12622.1 1009.55L12903.7 1170.83C12969.3 1214.37 13024.8 1271.45 13066.6 1338.23C13108.3 1405.02 13135.3 1479.97 13145.6 1558.03Z" fill="#37474F"/>
<path d="M11245.4 2075.79C11207.8 2095.87 11166 2106.75 11123.4 2107.53C11080.8 2108.31 11038.6 2098.97 11000.3 2080.27C10987.5 2074.8 10976.4 2065.97 10968.2 2054.7C10959.9 2043.44 10954.9 2030.16 10953.6 2016.27C10953.6 1998.35 10953.6 1931.79 10953.6 1913.23C10955.7 1897.26 10961.8 1882.1 10971.4 1869.2C10981.1 1856.3 10993.9 1846.12 11008.6 1839.63L11785 1391.63C11822.7 1371.7 11864.6 1360.91 11907.3 1360.13C11950 1359.35 11992.3 1368.61 12030.7 1387.15C12043.3 1392.88 12054.2 1401.8 12062.3 1413.03C12070.4 1424.25 12075.4 1437.4 12076.8 1451.15C12076.8 1469.71 12076.8 1538.83 12076.8 1556.75C12074.8 1572.82 12068.7 1588.09 12059 1601.1C12049.4 1614.1 12036.5 1624.4 12021.8 1630.99L11245.4 2075.79Z" fill="#132346"/>
<path opacity="0.25" d="M11245.4 2075.79C11207.8 2095.87 11166 2106.75 11123.4 2107.53C11080.8 2108.31 11038.6 2098.97 11000.3 2080.27C10987.5 2074.8 10976.4 2065.97 10968.2 2054.7C10959.9 2043.44 10954.9 2030.16 10953.6 2016.27C10953.6 1998.35 10953.6 1931.79 10953.6 1913.23C10955.7 1897.26 10961.8 1882.1 10971.4 1869.2C10981.1 1856.3 10993.9 1846.12 11008.6 1839.63L11785 1391.63C11822.7 1371.7 11864.6 1360.91 11907.3 1360.13C11950 1359.35 11992.3 1368.61 12030.7 1387.15C12043.3 1392.88 12054.2 1401.8 12062.3 1413.03C12070.4 1424.25 12075.4 1437.4 12076.8 1451.15C12076.8 1469.71 12076.8 1538.83 12076.8 1556.75C12074.8 1572.82 12068.7 1588.09 12059 1601.1C12049.4 1614.1 12036.5 1624.4 12021.8 1630.99L11245.4 2075.79Z" fill="black"/>
<path d="M11245.4 1974.04L12021.8 1526.04C12092.2 1485.08 12095.4 1421.71 12030.1 1383.95C11991.6 1365.41 11949.4 1356.15 11906.7 1356.93C11864 1357.71 11822.1 1368.5 11784.3 1388.43L11008 1836.43C10938.2 1876.75 10934.4 1940.11 11000.3 1977.87C11038.6 1996.51 11080.8 2005.88 11123.3 2005.21C11165.9 2004.55 11207.8 1993.87 11245.4 1974.04Z" fill="#132346"/>
<path opacity="0.3" d="M11245.4 1974.04L12021.8 1526.04C12092.2 1485.08 12095.4 1421.71 12030.1 1383.95C11991.6 1365.41 11949.4 1356.15 11906.7 1356.93C11864 1357.71 11822.1 1368.5 11784.3 1388.43L11008 1836.43C10938.2 1876.75 10934.4 1940.11 11000.3 1977.87C11038.6 1996.51 11080.8 2005.88 11123.3 2005.21C11165.9 2004.55 11207.8 1993.87 11245.4 1974.04Z" fill="black"/>
<path d="M5128.32 8188.43C5126.81 8145.84 5115.23 8104.21 5094.54 8066.94C5073.85 8029.68 5044.64 7997.84 5009.28 7974.03C4997.7 7965.48 4983.98 7960.3 4969.64 7959.05C4955.29 7957.81 4940.88 7960.56 4928 7966.99C4913.28 7975.95 4854.4 8008.59 4839.04 8018.19C4826.19 8027.93 4816.08 8040.83 4809.68 8055.63C4803.29 8070.43 4800.84 8086.64 4802.56 8102.67V10004.8C4804.11 10047.3 4815.63 10088.8 4836.2 10126.1C4856.77 10163.3 4885.8 10195.2 4920.96 10219.2C4932.53 10226.9 4945.91 10231.6 4959.81 10232.7C4973.7 10233.9 4987.66 10231.4 5000.32 10225.6C5016.96 10217.2 5076.48 10182.7 5092.48 10173.1C5105.34 10163.3 5115.45 10150.4 5121.84 10135.6C5128.24 10120.8 5130.69 10104.6 5128.96 10088.6L5128.32 8188.43Z" fill="#132346"/>
<path opacity="0.3" d="M5128.32 8188.43C5126.81 8145.84 5115.23 8104.21 5094.54 8066.94C5073.85 8029.68 5044.64 7997.84 5009.28 7974.03C4997.7 7965.48 4983.98 7960.3 4969.64 7959.05C4955.29 7957.81 4940.88 7960.56 4928 7966.99C4913.28 7975.95 4854.4 8008.59 4839.04 8018.19C4826.19 8027.93 4816.08 8040.83 4809.68 8055.63C4803.29 8070.43 4800.84 8086.64 4802.56 8102.67V10004.8C4804.11 10047.3 4815.63 10088.8 4836.2 10126.1C4856.77 10163.3 4885.8 10195.2 4920.96 10219.2C4932.53 10226.9 4945.91 10231.6 4959.81 10232.7C4973.7 10233.9 4987.66 10231.4 5000.32 10225.6C5016.96 10217.2 5076.48 10182.7 5092.48 10173.1C5105.34 10163.3 5115.45 10150.4 5121.84 10135.6C5128.24 10120.8 5130.69 10104.6 5128.96 10088.6L5128.32 8188.43Z" fill="black"/>
<path d="M5040 8241.55V10143.6C5040 10224.3 4986.88 10258.8 4920.96 10221.1C4885.8 10197.1 4856.76 10165.2 4836.2 10128C4815.63 10090.7 4804.11 10049.2 4802.56 10006.7V8102.67C4802.56 8021.39 4855.68 7986.83 4920.96 8024.59C4956.58 8048.73 4985.96 8080.99 5006.65 8118.71C5027.35 8156.44 5038.78 8198.54 5040 8241.55Z" fill="#132346"/>
<path opacity="0.4" d="M5040 8241.55V10143.6C5040 10224.3 4986.88 10258.8 4920.96 10221.1C4885.8 10197.1 4856.76 10165.2 4836.2 10128C4815.63 10090.7 4804.11 10049.2 4802.56 10006.7V8102.67C4802.56 8021.39 4855.68 7986.83 4920.96 8024.59C4956.58 8048.73 4985.96 8080.99 5006.65 8118.71C5027.35 8156.44 5038.78 8198.54 5040 8241.55Z" fill="black"/>
<path d="M5128.32 10737.6C5126.81 10695 5115.23 10653.3 5094.54 10616.1C5073.85 10578.8 5044.64 10547 5009.28 10523.2C4997.7 10514.6 4983.98 10509.4 4969.64 10508.2C4955.29 10506.9 4940.88 10509.7 4928 10516.1C4913.28 10525.1 4854.4 10557.7 4839.04 10567.3C4826.19 10577.1 4816.08 10589.9 4809.68 10604.8C4803.29 10619.6 4800.84 10635.8 4802.56 10651.8V11547.8C4804.21 11590.2 4815.78 11631.6 4836.34 11668.8C4856.9 11705.9 4885.89 11737.7 4920.96 11761.6C4932.15 11769.8 4945.35 11775 4959.19 11776.4C4973.03 11777.9 4987.01 11775.6 4999.68 11769.9C5016.32 11761.6 5075.84 11727 5091.84 11717.4C5104.64 11707.8 5114.73 11695 5121.13 11680.3C5127.52 11665.6 5130 11649.5 5128.32 11633.6V10737.6Z" fill="#132346"/>
<path opacity="0.3" d="M5128.32 10737.6C5126.81 10695 5115.23 10653.3 5094.54 10616.1C5073.85 10578.8 5044.64 10547 5009.28 10523.2C4997.7 10514.6 4983.98 10509.4 4969.64 10508.2C4955.29 10506.9 4940.88 10509.7 4928 10516.1C4913.28 10525.1 4854.4 10557.7 4839.04 10567.3C4826.19 10577.1 4816.08 10589.9 4809.68 10604.8C4803.29 10619.6 4800.84 10635.8 4802.56 10651.8V11547.8C4804.21 11590.2 4815.78 11631.6 4836.34 11668.8C4856.9 11705.9 4885.89 11737.7 4920.96 11761.6C4932.15 11769.8 4945.35 11775 4959.19 11776.4C4973.03 11777.9 4987.01 11775.6 4999.68 11769.9C5016.32 11761.6 5075.84 11727 5091.84 11717.4C5104.64 11707.8 5114.73 11695 5121.13 11680.3C5127.52 11665.6 5130 11649.5 5128.32 11633.6V10737.6Z" fill="black"/>
<path d="M5040 10785.6V11681.6C5040 11762.2 4986.88 11797.4 4920.96 11759C4885.8 11735 4856.76 11703.2 4836.2 11665.9C4815.63 11628.7 4804.11 11587.1 4802.56 11544.6V10648.6C4802.56 10568 4855.68 10532.8 4920.96 10570.5C4956.26 10594.5 4985.41 10626.5 5006.09 10663.9C5026.77 10701.2 5038.38 10742.9 5040 10785.6Z" fill="#132346"/>
<path opacity="0.4" d="M5040 10785.6V11681.6C5040 11762.2 4986.88 11797.4 4920.96 11759C4885.8 11735 4856.76 11703.2 4836.2 11665.9C4815.63 11628.7 4804.11 11587.1 4802.56 11544.6V10648.6C4802.56 10568 4855.68 10532.8 4920.96 10570.5C4956.26 10594.5 4985.41 10626.5 5006.09 10663.9C5026.77 10701.2 5038.38 10742.9 5040 10785.6Z" fill="black"/>
<path d="M7249.28 9149.72C7255.65 9180.79 7264.2 9211.37 7274.88 9241.23C7316.48 9353.87 7391.36 9460.12 7384.96 9580.44C7377.92 9716.12 7271.04 9821.07 7189.12 9929.23C7082.66 10072.2 7011.7 10238.5 6982.11 10414.3C6952.51 10590.1 6965.11 10770.5 7018.88 10940.4C7097.57 11147.5 7206.72 11341.6 7342.72 11516.4L7651.84 11954.8C7745.31 12077.6 7864.6 12178.3 8001.28 12249.9C8266.9 12400 8563.28 12487.6 8867.84 12505.9C9368.47 12539.7 9866.44 12409.1 10286.1 12134C10730.9 11839.6 10535 11084.4 10990.1 10808.6C11540.5 10475.8 11802.9 9319.96 11128.3 8837.4C11128.3 8837.4 11237.1 8129.55 11037.4 7949.07C10838.5 7782.56 10592.2 7682.72 10333.4 7663.64C9976.32 7626.52 9618.56 7696.28 9262.08 7695C8895.11 7693.81 8528.46 7716.69 8164.48 7763.48C8036.48 7780.76 7856 7827.47 7786.88 7952.27C7767.37 8001.22 7762.04 8054.68 7771.52 8106.52C7770.53 8188.75 7741.14 8268.11 7688.32 8331.15C7608.96 8427.15 7496.32 8491.8 7411.84 8582.04C7342.13 8657.28 7291.09 8747.87 7262.86 8846.49C7234.62 8945.1 7229.97 9048.97 7249.28 9149.72Z" fill="#263238"/>
<path d="M10801.3 10171.2C11377.3 10187.2 11452.2 10310 11968 10820.8C12396.8 11245.1 13817.6 12556.4 13817.6 12556.4L15520 13009.6L15118.1 14048.3C15118.1 14048.3 14734.1 14032.3 13966.1 14031.6C13494.4 14031.6 13330.6 13926 12855.7 13609.2C12613.8 13447.3 11248.6 12553.9 11248.6 12553.9L10801.3 10171.2Z" fill="#E6E6E6"/>
<path d="M17403.5 10909.1L14283.5 12008.6L13423.4 15720.6L13493.1 15794.8L16459.5 14688.3L17472.6 10983.3L17403.5 10909.1Z" fill="#132346"/>
<path opacity="0.35" d="M14352.6 12082.8L13493.1 15794.8L13423.4 15720.6L14283.5 12008.6L14352.6 12082.8Z" fill="black"/>
<path opacity="0.25" d="M17472.6 10983.3L14352.6 12082.8L13493.1 15794.8L16459.5 14688.3L17472.6 10983.3Z" fill="black"/>
<g opacity="0.2">
<path d="M15995.5 13933.1C16024.3 14006 16263.7 14166.7 16609.9 14137.9L16668.2 13924.1L15995.5 13933.1Z" fill="black"/>
</g>
<g opacity="0.1">
<path d="M16533.1 11743.6L16558.7 11618.8C16572.8 11550.4 16389.8 11586.2 16149.8 11699.5L15586.6 11869.7C15346.6 11983 15120 12067.5 15105.3 12136L15079.7 12260.1L16533.1 11743.6Z" fill="black"/>
</g>
<path d="M16718.7 11180.4C16727.7 11137.6 16654.7 11146.5 16556.8 11172.8L16377 11233.6C16377 11233.6 16450.6 11053.1 16025 11169.6C15557.1 11297.6 15546.9 11529.9 15546.9 11529.9C15473.7 11561.6 15398.7 11589 15322.2 11611.8C15166.7 11662.4 15150.1 11692.4 15137.3 11736L15114.2 11814.7L16704.6 11255.3C16704.6 11255.3 16712.3 11223.3 16718.7 11180.4Z" fill="#37474F"/>
<path d="M16551 11419.2C16403.8 11483.2 16343 11518.4 16320.6 11624.6C16295.7 11745.6 16290.6 11796.1 16290.6 11796.1L15462.4 12122.5C15462.4 12122.5 15507.2 11944 15518.1 11884.4C15529 11824.9 15419.5 11824.9 15276.2 11890.8L15310.1 11742.4L16598.4 11264.3L16551 11419.2Z" fill="#37474F"/>
<path d="M16575.4 11745.6C16575.4 11745.6 16587.5 11689.9 16601.6 11620.8C16615.7 11551.6 16432.6 11588.1 16192.6 11701.4L15629.4 11871.6C15389.4 11984.9 15162.2 12069.4 15148.2 12137.9L15122.6 12265.9L16575.4 11745.6Z" fill="#37474F"/>
<path d="M17125.8 12253.1C17125.8 12253.1 17015 12660.1 16985.6 12765.1C16956.2 12870 16445.4 13103.6 16190.1 13135.6C15701.1 13196.4 15645.4 13302 15762.6 13647.6C15871.4 13967.6 16189.4 14089.2 16631 14037.4C16838.4 14013.1 17124.5 13829.4 17237.1 13508.8C17380.5 13099.2 17301.1 12662 17360.6 12420.8C17420.2 12179.5 17249.9 12110.4 17125.8 12253.1Z" fill="#FFA8A7"/>
<path d="M12291.2 17850.5L11960.3 18042.5L11821.4 18122.5L10001.3 19172.8L9752.96 19313.6L9333.76 19555.5L9461.76 18249.2L9706.24 15720V15693.7L9717.76 15580.4L10037.8 12273.6L10177.9 10826.5L10227.2 10307.5L10243.8 10139.8H10252.8C10401 10098.6 10557.7 10098.6 10705.9 10139.8C10739 10149.8 10771.1 10162.7 10801.9 10178.2C10993.9 10273.6 11121.9 10459.2 11228.2 10654.4C11254.3 10701.9 11277.8 10750.8 11298.6 10800.9C11377.5 10990.6 11438.3 11187.3 11480.3 11388.4C11564.2 11759.6 11672.3 12139.2 11715.2 12737.6C11722 12891.6 11713.8 13045.9 11690.9 13198.4C11662 13601.8 11657.1 14006.5 11676.2 14410.5C11729.9 15325.7 11960.3 15740.4 12291.2 17850.5Z" fill="#E0E0E0"/>
<path d="M11821.4 18121.2L10001.3 19171.5L9752.96 19313.6L9333.76 19555.5L9045.12 19721.9L7292.8 20733.1C7311.36 20029.1 7319.68 19265.6 7303.04 18544.3C7297.92 18303 7296 18056.6 7306.24 17804.4C7339.52 16928.9 7505.92 15990 8102.4 15001.9L8129.92 14952C8200.32 15369.9 8840.32 15641.2 9416.32 15705.2L9480.32 15711C9552.64 15718 9627.52 15721.2 9704.96 15721.2H9753.6C10240.6 15716.8 10817.3 15602.2 11481.6 15377.6C11545.6 15748.8 11609.6 16235.8 11678.1 16805.4C11708.8 17061.4 11739.9 17334.3 11771.5 17624C11784.3 17785.9 11804.2 17951.6 11821.4 18121.2Z" fill="#FFA8A7"/>
<path d="M11960.3 18041.2L11821.4 18121.2L10001.3 19171.5L9752.96 19313.6L9333.76 19555.5L9045.12 19721.9L7292.8 20733.1L7100.8 20843.8C7110.4 20086 7116.8 19343.6 7116.16 18877.7C7116.16 18444.4 7125.76 18059.2 7149.44 17717.4C7196.16 17042.8 7293.44 16535.3 7456 16151.3C7646.74 15731 7872.38 15327.5 8130.56 14944.9C8130.56 14944.9 8290.56 15485.1 9487.36 15570.2H9495.04C9565.44 15575.3 9639.68 15578.5 9717.76 15579.8H9808.64C11298.6 15579.8 11463 15204.1 11463 15204.1C11608.6 15756.5 11723.7 16316.5 11808 16881.6C11839.6 17081.2 11870.1 17294.6 11899.5 17521.6C11921.3 17688 11941.8 17860.8 11960.3 18041.2Z" fill="#132346"/>
<path opacity="0.4" d="M11960.3 18041.2L11821.4 18121.2L10001.3 19171.5L9752.96 19313.6L9333.76 19555.5L9045.12 19721.9L7292.8 20733.1L7100.8 20843.8C7110.4 20086 7116.8 19343.6 7116.16 18877.7C7116.16 18444.4 7125.76 18059.2 7149.44 17717.4C7196.16 17042.8 7293.44 16535.3 7456 16151.3C7646.74 15731 7872.38 15327.5 8130.56 14944.9C8130.56 14944.9 8290.56 15485.1 9487.36 15570.2H9495.04C9565.44 15575.3 9639.68 15578.5 9717.76 15579.8H9808.64C11298.6 15579.8 11463 15204.1 11463 15204.1C11608.6 15756.5 11723.7 16316.5 11808 16881.6C11839.6 17081.2 11870.1 17294.6 11899.5 17521.6C11921.3 17688 11941.8 17860.8 11960.3 18041.2Z" fill="black"/>
<path opacity="0.2" d="M11105.9 17192C11105.9 17192 10939.5 17720.6 10239.4 18016.9L10206.1 18178.8L10001.3 19171.5L9752.96 19313.6L9901.44 18218.5L9965.44 17742.4C10398.1 17697.5 10801.6 17502.8 11105.9 17192Z" fill="black"/>
<path d="M8976.64 10292.8L8272.64 10367C7806.72 10480.9 7596.16 10687 7548.16 11098.5C7525.76 11290.5 7409.92 11802.5 7572.48 12442.5C7719.68 13023.6 8112.64 14445.7 8112.64 14445.7C8112.64 14445.7 7208.32 15625.9 7044.48 17649.6C8699.52 18729.9 11238.4 18149.4 11925.1 17496.6C11867.5 16878.4 11472.6 15181.7 11423.4 14630.7C11423.4 14630.7 11459.8 13769.9 11528.3 13396.8C12051.8 12825.2 11985.3 12278.7 11750.4 11837.7C11316.5 11023.6 10662.4 10308.1 10450.6 10308.8L8976.64 10292.8Z" fill="#132346"/>
<path opacity="0.7" d="M8976.64 10292.8L8272.64 10367C7806.72 10480.9 7596.16 10687 7548.16 11098.5C7525.76 11290.5 7409.92 11802.5 7572.48 12442.5C7719.68 13023.6 8112.64 14445.7 8112.64 14445.7C8112.64 14445.7 7208.32 15625.9 7044.48 17649.6C8699.52 18729.9 11238.4 18149.4 11925.1 17496.6C11867.5 16878.4 11472.6 15181.7 11423.4 14630.7C11423.4 14630.7 11459.8 13769.9 11528.3 13396.8C12051.8 12825.2 11985.3 12278.7 11750.4 11837.7C11316.5 11023.6 10662.4 10308.1 10450.6 10308.8L8976.64 10292.8Z" fill="white"/>
<path d="M9586.56 14699.2C9586.56 14712 9586.56 14723.5 9586.56 14733.1V14749.7C9586.98 14755 9586.98 14760.4 9586.56 14765.7C9562.24 15021.7 9533.44 15293.7 9502.72 15570.8C9502.72 15570.8 9502.72 15570.8 9502.72 15574.7C9498.24 15619.5 9493.12 15664.3 9488 15709.7C9393.92 16544.9 9281.92 17437.7 9195.52 18250.5C9174.4 18447.6 9155.2 18639.6 9137.92 18826.5C9111.04 19106.2 9082.24 19412.8 9052.8 19722.5L7300.48 20733.7L7108.48 20844.4L6618.88 21126.7C6717.44 20157.1 6947.2 17910.7 7075.2 16896.9C7089.92 16782.4 7109.12 16667.8 7130.88 16553.9L7148.16 16470.7L7155.84 16436.8C7164.16 16398.4 7172.48 16361.2 7181.44 16323.5C7190.4 16285.7 7198.72 16253.7 7207.04 16219.8C7226.88 16142.4 7248 16066.2 7271.04 15992C7281.92 15956.1 7292.16 15920.3 7303.68 15885.1C7315.2 15849.9 7324.8 15814.7 7336.32 15780.1C7359.36 15711 7381.76 15643.2 7405.44 15577.2C7405.17 15576 7405.17 15574.7 7405.44 15573.4C7416.32 15542 7427.84 15509.4 7439.36 15480C7454.72 15436.4 7470.72 15394.2 7486.72 15352L7505.92 15301.4C7515.52 15278.4 7523.84 15256 7532.8 15233.6C7564.16 15154.8 7596.8 15080 7625.6 15010.2C7632 14994.8 7639.04 14979.5 7645.44 14964.8C7651.84 14950 7662.08 14928.3 7669.76 14910.4C7688.96 14865.6 7708.16 14824 7726.72 14782.4C7734.4 14764.4 7742.72 14747.2 7750.4 14730.5C7758.08 14713.9 7768.96 14692.1 7777.28 14674.2L7789.44 14648.6L7802.24 14623.6C7803.08 14620.4 7804.61 14617.3 7806.72 14614.7C7808.47 14610 7810.61 14605.5 7813.12 14601.2C7814.67 14598.4 7815.96 14595.4 7816.96 14592.3C7822.29 14583.2 7826.99 14573.8 7831.04 14564.1L7873.92 14480.9C7873.92 14476.4 7878.4 14473.2 7879.68 14469.4L7896.32 14438.7L7363.84 12230.7L7098.88 11133.7V11115.8C7111.04 11018.5 7192.32 10559.6 7660.8 10420.1C7925.29 10351.8 8196.22 10311.5 8469.12 10299.8C8574.08 10293.4 8668.8 10290.8 8746.24 10288.9H8868.48H8942.08C8942.25 10290.4 8942.25 10291.9 8942.08 10293.4C8945.92 10303 8956.8 10331.8 8973.44 10376.6C8975.24 10384.1 8977.82 10391.4 8981.12 10398.4C8981.18 10399.4 8981.18 10400.5 8981.12 10401.6C9096.32 10717.7 9419.52 11638 9580.16 12437.4C9608.32 12575.6 9631.36 12710.7 9648 12838.7C9696 13238.7 9660.8 13908.1 9586.56 14699.2Z" fill="#FAFAFA"/>
<path d="M7913.6 13381.4C7913.6 13381.4 7977.6 13065.9 8071.68 12384.3C8181.12 11598.4 8142.08 11209.9 8023.68 10961.6L7356.16 12234.5L7888.64 14442.5C7888.64 14442.5 7341.44 15444.8 7120.64 16554.5C7644.16 15075.5 8216.96 14634.5 8216.96 14634.5L7913.6 13381.4Z" fill="#E6E6E6"/>
<path d="M10252.2 9799.96C10459.5 9799.96 10483.8 9834.52 10662.4 10073.9C10768.6 10216.6 11441.3 11327 11441.3 11327C11441.3 11327 10906.2 10623 10502.4 10409.2C10424.7 10363.7 10340.5 10330 10252.8 10309.4L10252.2 9799.96Z" fill="#EBEBEB"/>
<path d="M8718.72 12159.6C8718.72 12095.6 8712.32 11957.4 8701.44 11783.3C8648.32 10929.6 8622.72 10161.6 8910.72 10097.6L8935.68 10215.3C8725.76 10260.8 8794.88 11359.6 8821.12 11773.1C8832.64 11951 8841.6 12093.1 8838.4 12162.2L8718.72 12159.6Z" fill="#132346"/>
<path d="M7758.72 6569.88L8206.72 6936.6C8231.08 6908.72 8249.49 6876.17 8260.82 6840.93C8272.16 6805.69 8276.18 6768.51 8272.64 6731.66C8269.11 6694.81 8258.09 6659.08 8240.26 6626.63C8222.43 6594.19 8198.17 6565.73 8168.96 6543C8110.06 6494.29 8034.77 6469.94 7958.5 6474.94C7882.23 6479.94 7810.76 6513.9 7758.72 6569.88Z" fill="#263238"/>
<path d="M8928.64 9854.36C8928.64 9573.4 8273.92 9150.36 7936 8559.64C7598.08 7968.92 7767.04 6997.4 8230.4 6848.28C8234.24 6848.28 8247.04 6723.48 8248.96 6714.52C8274.58 6601.8 8317.78 6493.81 8376.96 6394.52C8565.76 6069.4 8965.76 5818.52 9336.96 5766.04C10804.5 5552.28 11479 6122.52 11748.5 6749.72C11835.8 6960.7 11874.7 7188.58 11862.4 7416.6C11854.9 7584.06 11792.7 7744.45 11685.5 7873.3C11578.2 8002.15 11431.8 8092.37 11268.5 8130.2L8928.64 9854.36Z" fill="#263238"/>
<path d="M10964.5 6539.8C11251.8 6667.8 11525.1 7104.92 11520.6 8335C11516.8 9378.2 11196.8 9641.88 11035.5 9719.32C10874.2 9796.76 10558.7 9757.08 10252.2 9710.36V10309.4C10252.2 10309.4 10481.9 10535.3 10401.3 10677.4C10320.6 10819.5 10023 10939.8 9560.32 10794.5C9036.16 10630 8916.48 10282.5 8916.48 10282.5L8904.32 8967.96C8904.32 8967.96 8728.32 9152.92 8417.92 8881.56C8161.92 8656.92 8069.76 8272.28 8262.4 8061.08C8455.04 7849.88 8702.08 7833.24 8924.8 8069.4L9084.8 7984.92C9370.24 7951.64 9788.8 7903.64 10097.3 7748.12C10888.3 7345.56 10970.2 6909.08 10964.5 6539.8Z" fill="#FFA8A7"/>
<path d="M8929.28 7899.16L8933.12 8475.16C8970.11 8476.14 9006.91 8469.54 9041.26 8455.78C9075.61 8442.01 9106.78 8421.37 9132.85 8395.11C9158.93 8368.86 9179.36 8337.55 9192.88 8303.11C9206.41 8268.66 9212.76 8231.82 9211.52 8194.84C9210.83 8118.92 9181.27 8046.12 9128.85 7991.2C9076.43 7936.29 9005.08 7903.38 8929.28 7899.16Z" fill="#263238"/>
<path d="M10991.4 7981.08C10991.6 8008.14 10999.8 8034.53 11015 8056.97C11030.1 8079.41 11051.5 8096.92 11076.5 8107.32C11101.4 8117.72 11128.9 8120.56 11155.5 8115.49C11182.1 8110.41 11206.6 8097.64 11226 8078.77C11245.4 8059.89 11258.8 8035.74 11264.6 8009.3C11270.4 7982.87 11268.3 7955.31 11258.6 7930.05C11248.9 7904.79 11232 7882.94 11209.9 7867.21C11187.9 7851.48 11161.8 7842.56 11134.7 7841.56C11116.1 7841.13 11097.6 7844.42 11080.3 7851.23C11062.9 7858.05 11047.1 7868.25 11033.8 7881.24C11020.4 7894.23 11009.8 7909.74 11002.5 7926.89C10995.2 7944.03 10991.4 7962.45 10991.4 7981.08Z" fill="black"/>
<path d="M9887.36 8042.52C9886.24 8062.36 9889.04 8082.23 9895.61 8100.98C9902.18 8119.74 9912.39 8137.01 9925.65 8151.82C9938.91 8166.62 9954.96 8178.67 9972.88 8187.26C9990.8 8195.85 10010.2 8200.81 10030.1 8201.88C10050.2 8202.05 10070.2 8198.23 10088.9 8190.66C10107.5 8183.09 10124.5 8171.91 10138.8 8157.76C10153.2 8143.6 10164.6 8126.76 10172.4 8108.19C10180.2 8089.62 10184.2 8069.7 10184.3 8049.56C10185 8030.06 10181.7 8010.63 10174.9 7992.37C10168 7974.11 10157.6 7957.39 10144.2 7943.16C10130.9 7928.93 10114.9 7917.46 10097.1 7909.42C10079.3 7901.37 10060.1 7896.91 10040.6 7896.28C10021.1 7895.65 10001.7 7898.86 9983.46 7905.74C9965.2 7912.62 9948.48 7923.03 9934.25 7936.37C9920.01 7949.71 9908.55 7965.73 9900.5 7983.5C9892.46 8001.27 9887.99 8020.46 9887.36 8039.96V8042.52Z" fill="black"/>
<path d="M11357.4 7723.15L11001 7581.71C11009.2 7557.73 11022.3 7535.71 11039.5 7517.02C11056.6 7498.33 11077.4 7483.39 11100.6 7473.11C11123.8 7462.84 11148.9 7457.46 11174.2 7457.32C11199.6 7457.17 11224.7 7462.27 11248 7472.27C11295 7492.04 11332.5 7529.11 11352.9 7575.82C11373.3 7622.53 11374.9 7675.28 11357.4 7723.15Z" fill="black"/>
<path d="M10653.4 7868.43L10635.5 8722.19L11094.4 8620.43L10653.4 7868.43Z" fill="#F28F8F"/>
<path d="M10112.6 8896.27L10560.6 9035.15C10554.1 9065.69 10541.4 9094.57 10523.3 9119.99C10505.1 9145.4 10481.9 9166.82 10455.2 9182.9C10428.4 9198.98 10398.6 9209.39 10367.7 9213.48C10336.7 9217.57 10305.2 9215.26 10275.2 9206.67C10213.7 9185.3 10162.7 9141.3 10132.5 9083.64C10102.3 9025.98 10095.2 8958.98 10112.6 8896.27Z" fill="#B16668"/>
<path d="M10360.3 9214.36C10359.8 9152.06 10334.7 9092.48 10290.5 9048.61C10246.2 9004.73 10186.5 8980.11 10124.2 8980.12C10118 8979.8 10111.8 8979.8 10105.6 8980.12C10107.9 9030.12 10125.2 9078.28 10155.2 9118.34C10185.2 9158.4 10226.6 9188.51 10273.9 9204.76C10301.7 9213.93 10331.2 9217.2 10360.3 9214.36Z" fill="#F28F8F"/>
<path d="M10252.2 9713.56C9928.96 9675.16 9262.72 9489.56 9154.56 9218.84C9197.9 9354.73 9281.07 9474.47 9393.28 9562.52C9594.24 9735.32 10252.2 9915.16 10252.2 9915.16V9713.56Z" fill="#F28F8F"/>
<path d="M8913.28 9803.15C8828.8 9785.87 8753.92 9822.99 8684.8 9939.47C8615.68 10056 8464 10304.3 8464 10304.3C8464 10304.3 8385.28 11122.8 8464 11328.3C8531.84 11504.9 9280 12167.3 9280 12167.3C9280 12167.3 9084.8 12902.7 9077.76 13144C9070.72 13385.2 9525.76 14301.1 9580.8 14769.6C9580.8 14769.6 9742.72 13297.6 9672.96 12767C9552.64 11847.3 9121.28 10659.5 8917.76 10281.9L8913.28 9803.15Z" fill="#EBEBEB"/>
<path d="M9370.88 12849.6C9320.95 12730.7 9262.12 12615.8 9194.88 12505.9C9088.64 12329.9 8957.44 12160.9 8839.04 12117.4C8821.09 12110.3 8802.03 12106.4 8782.72 12105.9H8776.32C8756.83 12107 8737.72 12111.8 8720 12120C8626.56 12161.6 8528 12288.9 8448 12435.5C8366.07 12582.6 8298.56 12737.4 8246.4 12897.6C8215.68 12996.8 8229.12 13207.3 8265.6 13448C8337.28 13915.2 8496.64 14498.8 8585.6 14614C8650.8 14694.5 8727.84 14764.7 8814.08 14822C8761.28 14857 8704.3 14885.1 8644.48 14905.9C8610.65 14918.2 8574.9 14924.5 8538.88 14924.4V15008.3H8549.12C8587.17 15007.7 8624.91 15001.4 8661.12 14989.7C8745.01 14962.5 8824.23 14922.6 8896 14871.3C8971.77 14916.4 9054 14949.7 9139.84 14969.9C9180.26 14979.6 9222.05 14982.2 9263.36 14977.6L9253.12 14894.4C9217.28 14897.4 9181.18 14894.6 9146.24 14886C9084.67 14870 9025.34 14846.3 8969.6 14815.6C9050.83 14751 9122 14674.6 9180.8 14589.1C9230.72 14512.9 9292.16 14250.5 9338.24 13949.1C9366.4 13769.2 9389.44 13576 9402.24 13400C9416.32 13154.2 9409.92 12943.6 9370.88 12849.6ZM9106.56 14543C9046.52 14629.6 8972.81 14705.9 8888.32 14768.9C8798.57 14713.5 8718.56 14643.6 8651.52 14562.2C8568.32 14454 8414.72 13884.4 8345.6 13435.2C8310.4 13208 8297.6 13011.5 8325.76 12923.2C8377.95 12761.1 8447.03 12604.9 8531.84 12457.2C8620.16 12304.9 8714.24 12192.9 8779.52 12190.4C8856.96 12190.4 8982.4 12330.5 9099.52 12510.4C9123.2 12545.6 9145.6 12584 9167.36 12622.4C9215.1 12705.1 9257.85 12790.5 9295.36 12878.4C9330.56 12965.4 9334.4 13161.9 9318.4 13390.4C9309.44 13518.4 9295.36 13652.1 9277.44 13785.2C9228.8 14132.8 9160.32 14458.5 9106.56 14541.1V14543Z" fill="#455A64"/>
<path d="M9377.92 14928.3C9378.92 14952.7 9372.64 14976.9 9359.89 14997.7C9347.14 15018.6 9328.48 15035.2 9306.28 15045.5C9284.09 15055.7 9259.35 15059.1 9235.2 15055.3C9211.05 15051.5 9188.58 15040.6 9170.63 15024C9152.68 15007.4 9140.06 14985.8 9134.37 14962C9128.69 14938.3 9130.18 14913.3 9138.67 14890.4C9147.16 14867.5 9162.27 14847.6 9182.07 14833.3C9201.88 14818.9 9225.49 14810.8 9249.92 14809.9C9282.58 14808.7 9314.39 14820.4 9338.38 14842.6C9362.37 14864.8 9376.59 14895.6 9377.92 14928.3Z" fill="#263238"/>
<path d="M8660.48 14961.6C8661.61 14986 8655.44 15010.2 8642.77 15031.2C8630.1 15052.1 8611.49 15068.8 8589.31 15079.2C8567.13 15089.5 8542.38 15093 8518.19 15089.3C8494 15085.5 8471.48 15074.7 8453.46 15058.1C8435.45 15041.6 8422.77 15020 8417.02 14996.2C8411.28 14972.4 8412.73 14947.5 8421.2 14924.5C8429.67 14901.5 8444.76 14881.6 8464.58 14867.2C8484.39 14852.9 8508.03 14844.7 8532.48 14843.8C8548.62 14843.1 8564.74 14845.6 8579.91 14851.2C8595.08 14856.7 8609.01 14865.2 8620.9 14876.1C8632.79 14887.1 8642.41 14900.2 8649.2 14914.9C8655.99 14929.6 8659.83 14945.4 8660.48 14961.6Z" fill="#263238"/>
<path d="M9392 13398.7L9320.96 13393.6C9313.72 13392.9 9307.01 13389.5 9302.24 13384C9297.47 13378.5 9295 13371.4 9295.36 13364.1C9310.08 13129.2 9302.4 12956.4 9273.6 12887.3C9149.44 12584 8889.6 12203.8 8780.16 12208.3C8670.72 12212.8 8444.16 12614 8345.6 12926.4C8323.2 12998 8330.24 13170.8 8364.16 13403.8C8365.28 13410.9 8363.56 13418.2 8359.37 13424.1C8355.18 13429.9 8348.86 13433.9 8341.76 13435.2L8271.36 13446C8263.98 13446.9 8256.54 13444.9 8250.67 13440.3C8244.79 13435.8 8240.96 13429.1 8240 13421.7C8200.96 13160.6 8196.48 12981.4 8225.92 12888.6C8278.4 12720.9 8526.08 12093.1 8775.04 12082.8C9024 12072.6 9324.16 12676.8 9390.72 12840C9427.2 12929.6 9438.08 13108.8 9421.44 13371.8C9420.95 13379.2 9417.61 13386.1 9412.12 13391.2C9406.64 13396.2 9399.43 13398.9 9392 13398.7Z" fill="#132346"/>
<path d="M7857.28 10411.8C7388.8 10404.1 7172.48 10562.2 6875.52 10959.6C6640 11275.2 5723.52 12980.1 5419.52 13478L3764.48 12593.6C3429.76 12362.5 3321.6 11997.7 3109.76 11784.6C2897.92 11571.5 2678.4 11528.6 2445.44 11352.6C2212.48 11176.6 2117.76 11039.6 2050.56 11204.1C1983.36 11368.6 2242.56 11634.8 2291.84 11700.8C2341.12 11766.7 2600.96 11913.2 2263.68 11918.4C1926.4 11923.5 1258.88 11574 1096.32 11512C933.762 11449.9 943.362 11643.8 1023.36 11768C1103.36 11892.1 1099.52 12242.8 1234.56 12445.7C1377.28 12660.8 1455.36 12754.2 1773.44 12893.7C2069.12 13021.7 2689.92 13072.9 3004.16 13269.4C3318.4 13465.9 4097.28 14158.4 4570.88 14573.7C5173.12 15101.7 5588.48 15198.4 5923.84 14881.6C6249.6 14540.4 6579.84 14140.4 6741.12 13937.6C7175.68 13390.4 7863.04 12145.6 7863.04 12145.6C7863.04 12145.6 8160.64 11505.6 7857.28 10411.8Z" fill="#FFA8A7"/>
<path d="M7921.92 10365.1C7232 10365.1 7025.92 10614.7 6672.64 11191.3C6319.36 11768 5413.12 13418.5 5413.12 13418.5L4108.16 12735C4108.16 12735 3873.28 13252.1 3623.68 13785.2C3623.68 13785.2 4362.24 14425.2 4711.68 14728C5061.12 15030.7 5524.48 15268.1 5953.92 14897.6C6412.8 14502 7900.8 12447 7900.8 12447C8254.08 11805.7 8175.36 10833.6 7921.92 10365.1Z" fill="#F0F0F0"/>
<path d="M5413.12 13418.5C5626.24 13669.4 5884.16 13951.6 5872.64 14173.7C5872.64 14173.7 6018.56 13976.6 5505.92 13250.2L5413.12 13418.5Z" fill="#E0E0E0"/>
<path d="M2944.64 7263.63L2410.88 7569.55L2412.8 6956.43L2013.44 6726.04L1082.24 7263.63V8338.83L151.039 8876.43V9951.63L550.399 10182L1082.24 9874.83V10489.9L1481.6 10720.3L2412.8 10182V9106.83L3344 8569.23V7494.04L2944.64 7263.63Z" fill="#132346"/>
<path d="M550.398 9106.83V10182L1481.6 9644.43V10720.3L2412.8 10182V9106.83L3344 8569.23V7494.03L2409.6 8033.55L2412.8 6956.43L1481.6 7494.03V8569.23L550.398 9106.83Z" fill="#132346"/>
<g opacity="0.2">
<path d="M550.399 10182L151.039 9951.64V8876.44L550.399 9106.84V10182Z" fill="black"/>
<path d="M1481.6 7494.04L1082.24 7263.64V8338.84L1481.6 8569.24V7494.04Z" fill="black"/>
<path d="M1481.6 10720.3L1082.24 10489.9V9874.84L1481.6 9644.44V10720.3Z" fill="black"/>
</g>
<g opacity="0.5">
<path d="M1481.6 8569.24L1082.24 8338.84L151.039 8876.44L550.399 9106.84L1481.6 8569.24Z" fill="white"/>
<path d="M2412.8 6956.43L2013.44 6726.04L1082.24 7263.63L1481.6 7494.04L2412.8 6956.43Z" fill="white"/>
<path d="M3344 7494.03L2944.64 7263.63L2410.88 7569.55L2409.6 8033.55L3344 7494.03Z" fill="white"/>
</g>
<path d="M18261.1 5105.56C18244.2 5090.91 18226 5077.84 18206.7 5066.52C18138.9 5026.2 17831.7 4849.56 17815.7 4839.96C17653.1 4736.28 17395.8 4759.32 17166.7 4875.16C16838.4 5040.92 16565.1 5391 16356.5 5974.04C16356.5 5974.04 16145.3 5822.36 16076.8 5782.04C15907.2 5689.24 15708.8 5734.04 15485.4 5879.32C15233.9 6043.16 15062.4 6255.64 14905.6 6576.92V6582.68C14769.7 6855.48 14695.4 7154.8 14688 7459.48C14688 8133.4 14963.8 8454.68 15322.9 8695.96C15425.3 8765.08 15696 8910.36 15722.9 8928.28C15939.6 9071.34 16179.2 9176.12 16431.4 9238.04L16785.3 9320.6L17139.2 8829.72C17396.9 8467.77 17633.4 8091.25 17847.7 7702.04C18206.7 7046.04 18487.7 6403.48 18482.6 5732.12C18477.4 5444.76 18394.9 5233.56 18261.1 5105.56Z" fill="#132346"/>
<path opacity="0.3" d="M18261.1 5105.56C18244.2 5090.91 18226 5077.84 18206.7 5066.52C18138.9 5026.2 17831.7 4849.56 17815.7 4839.96C17653.1 4736.28 17395.8 4759.32 17166.7 4875.16C16838.4 5040.92 16565.1 5391 16356.5 5974.04C16356.5 5974.04 16145.3 5822.36 16076.8 5782.04C15907.2 5689.24 15708.8 5734.04 15485.4 5879.32C15233.9 6043.16 15062.4 6255.64 14905.6 6576.92V6582.68C14769.7 6855.48 14695.4 7154.8 14688 7459.48C14688 8133.4 14963.8 8454.68 15322.9 8695.96C15425.3 8765.08 15696 8910.36 15722.9 8928.28C15939.6 9071.34 16179.2 9176.12 16431.4 9238.04L16785.3 9320.6L17139.2 8829.72C17396.9 8467.77 17633.4 8091.25 17847.7 7702.04C18206.7 7046.04 18487.7 6403.48 18482.6 5732.12C18477.4 5444.76 18394.9 5233.56 18261.1 5105.56Z" fill="black"/>
<path d="M18261.1 5105.56C18244.2 5090.91 18226 5077.84 18206.7 5066.52C18138.9 5026.2 17831.7 4849.56 17815.7 4839.96C17653.1 4736.28 17395.8 4759.32 17166.7 4875.16C16838.4 5040.92 16565.1 5391 16356.5 5974.04C16356.5 5974.04 16145.3 5822.36 16076.8 5782.04C15907.2 5689.24 15708.8 5734.04 15485.4 5879.32C15233.9 6043.16 15062.4 6255.64 14905.6 6576.92V6582.68C14898.6 6596.76 14892.8 6610.84 14886.4 6624.92L17574.4 8175C17669.8 8020.12 17762.6 7863.32 17850.9 7702.04C18209.9 7046.04 18490.9 6403.48 18485.8 5732.12C18477.4 5444.76 18394.9 5233.56 18261.1 5105.56Z" fill="#132346"/>
<path opacity="0.15" d="M18261.1 5105.56C18244.2 5090.91 18226 5077.84 18206.7 5066.52C18138.9 5026.2 17831.7 4849.56 17815.7 4839.96C17653.1 4736.28 17395.8 4759.32 17166.7 4875.16C16838.4 5040.92 16565.1 5391 16356.5 5974.04C16356.5 5974.04 16145.3 5822.36 16076.8 5782.04C15907.2 5689.24 15708.8 5734.04 15485.4 5879.32C15233.9 6043.16 15062.4 6255.64 14905.6 6576.92V6582.68C14898.6 6596.76 14892.8 6610.84 14886.4 6624.92L17574.4 8175C17669.8 8020.12 17762.6 7863.32 17850.9 7702.04C18209.9 7046.04 18490.9 6403.48 18485.8 5732.12C18477.4 5444.76 18394.9 5233.56 18261.1 5105.56Z" fill="black"/>
<path d="M16354.6 5971.48L16714.2 6440.6L17294.1 5754.52L16638.7 5376.28C16522 5563.41 16426.7 5763.06 16354.6 5971.48Z" fill="#132346"/>
<path opacity="0.3" d="M16354.6 5971.48L16714.2 6440.6L17294.1 5754.52L16638.7 5376.28C16522 5563.41 16426.7 5763.06 16354.6 5971.48Z" fill="black"/>
<path d="M18261.1 5105.56C18104.3 4965.4 17818.9 4977.56 17566.7 5105.56C17223 5279.64 16938.9 5655.32 16726.4 6291.48C16513.9 5901.08 16229.8 5888.92 15886.1 6112.28C15633.9 6276.12 15462.4 6488.6 15306.2 6809.88L15303 6815.64C15167.6 7088.81 15093.6 7388.28 15086.1 7693.08C15086.1 8367 15362.6 8688.28 15721 8929.56C15937.6 9072.62 16177.3 9177.4 16429.4 9239.32L16783.4 9321.88L17137.3 8831C17394.9 8469.05 17631.5 8092.53 17845.8 7703.32C18204.8 7047.32 18485.8 6404.76 18480.6 5733.4C18477.4 5444.76 18394.9 5233.56 18261.1 5105.56Z" fill="#132346"/>
<g opacity="0.07">
<path d="M17959 5041.56C18057.7 5037.04 18154.7 5068.16 18232.3 5129.24C18233.7 5132 18235.6 5134.41 18238.1 5136.28C18369.9 5256.6 18443.5 5470.36 18444.2 5736.6C18444.2 6437.4 18124.2 7117.72 17813.8 7689.88C17601.1 8077.83 17366 8453.08 17109.8 8813.72L16769.9 9286.68L16439 9209.24C16190.6 9148.22 15954.5 9045.19 15740.8 8904.6C15420.8 8687 15118.7 8392.6 15121.3 7696.28C15128.1 7396.84 15199.9 7102.46 15331.8 6833.56V6827.8C15489.3 6504.6 15658.9 6300.44 15899.5 6144.28C16011.3 6061.37 16144.6 6012.48 16283.5 6003.48C16446.1 6003.48 16579.8 6103.96 16692.5 6310.68C16695.3 6316.21 16699.6 6320.84 16704.9 6324.01C16710.2 6327.19 16716.4 6328.78 16722.6 6328.6H16725.8C16732.4 6327.98 16738.6 6325.49 16743.9 6321.4C16749.1 6317.32 16753 6311.82 16755.2 6305.56C16958.1 5698.2 17227.5 5316.76 17578.2 5139.48C17695.3 5078.14 17825 5044.63 17957.1 5041.56M17957.1 5007.64C17819.7 5010.47 17684.7 5045.08 17562.9 5108.76C17219.2 5282.84 16935 5658.52 16722.6 6294.68C16599.7 6068.12 16452.5 5968.92 16283.5 5968.92C16138.5 5978.45 15999.3 6029.31 15882.2 6115.48C15630.1 6279.32 15458.6 6491.8 15302.4 6813.08L15299.2 6818.84C15163.8 7092.01 15089.8 7391.48 15082.2 7696.28C15082.2 8370.2 15358.7 8691.48 15717.1 8932.76C15933.8 9075.82 16173.4 9180.6 16425.6 9242.52L16779.5 9325.08L17133.4 8834.2C17391.1 8472.25 17627.7 8095.73 17841.9 7706.52C18201 7050.52 18481.9 6407.96 18476.8 5736.6C18476.8 5447.96 18393 5233.56 18259.2 5110.68C18174.7 5041.86 18067.9 5006.55 17959 5011.48L17957.1 5007.64Z" fill="black"/>
</g>
<path d="M18222.1 6919.96L17533.4 7318.04L17277.4 6386.84C17273.8 6372.76 17265.5 6360.33 17253.9 6351.6C17242.2 6342.88 17228 6338.38 17213.4 6338.84C17198.5 6338.53 17183.9 6343.49 17172.2 6352.85C17160.5 6362.2 17152.4 6375.36 17149.4 6390.04L16750.7 8211.48L16415.4 7293.72C16414.7 7276.74 16407.3 7260.73 16394.8 7249.21C16382.3 7237.69 16365.8 7231.6 16348.8 7232.28C16331.8 7232.96 16315.8 7240.35 16304.3 7252.83C16292.8 7265.31 16286.7 7281.86 16287.4 7298.84L16060.8 8103.32L15303 8541.08C15328 8577.31 15354.9 8612.14 15383.7 8645.4L16151.7 8203.16C16166.5 8194.54 16177.5 8180.58 16182.4 8164.12L16361 7529.24L16704.6 8467.48C16709.2 8480.6 16717.9 8491.89 16729.5 8499.62C16741 8507.36 16754.8 8511.13 16768.6 8510.36C16782.8 8509.64 16796.4 8504.23 16807.2 8494.95C16818 8485.68 16825.3 8473.09 16828.2 8459.16L17218.6 6678.68L17424.6 7434.52C17427.1 7444.24 17431.8 7453.25 17438.4 7460.83C17444.9 7468.4 17453.2 7474.33 17462.5 7478.13C17471.7 7481.93 17481.8 7483.49 17491.8 7482.7C17501.8 7481.9 17511.4 7478.77 17520 7473.56L18131.8 7120.92C18167 7053.72 18195.2 6987.16 18222.1 6919.96Z" fill="white"/>
<path d="M21112.3 24036.1C21086.1 24122.9 21083.9 24215.1 21105.9 24303C21131.5 24356.7 21291.5 24533.4 21617.9 24597.4C21944.3 24661.4 22393 24597.4 22586.2 24585.9C22779.5 24574.3 23386.2 24649.9 23578.9 24674.2C23882.2 24715.1 24115.2 24648.6 24228.5 24539.1C24246.8 24517.1 24260.3 24491.5 24268.2 24464C24276 24436.4 24278 24407.5 24273.9 24379.1C24273.3 24306.1 24262.5 24233.5 24241.9 24163.5L21112.3 24036.1Z" fill="#263238"/>
<path d="M24192 23846C24197.8 23871 24203.5 23896.6 24208.6 23922.2C24238.2 24051 24247.5 24183.5 24236.2 24315.2C24197.1 24411.2 24090.2 24464.3 24003.8 24491.2C23775.4 24564.1 23601.9 24555.2 23349.1 24504.6C23094.9 24467.5 22838 24451.7 22581.1 24457.2C22382.1 24470.7 22108.2 24509.1 21909.1 24490.5C21739.9 24483.5 21572.8 24449.3 21414.4 24389.4C21281.9 24333.1 21146.2 24261.4 21113.6 24123.2C21074.6 23835.2 21195.5 23708.4 21331.8 23627.8C21468.2 23547.2 21662.1 23553.6 21869.4 23540.1C22057 23527.3 22193.9 23527.3 22361 23514.5C22505.4 23507.5 22648.9 23487.6 22789.8 23455C22917.8 23415.3 23045.8 23254.7 23098.2 23248.9C23098.2 23248.9 23933.4 23242.5 24012.8 23248.9C24105 23256.6 24133.1 23542 24144.6 23604.1C24153.6 23652.8 24155.5 23705.2 24168.3 23752C24176.6 23783.3 24184.3 23814.7 24192 23846Z" fill="#37474F"/>
<path d="M21618.6 24452.1C21592.3 24244.8 21554.6 23795.5 21938.6 23535.6H21986.6C21814.1 23485.7 21631 23485.7 21458.6 23535.6C21153.3 23616.9 21017.6 23864 21093.8 24125.1C21095 24122.5 21162.9 24375.3 21618.6 24452.1Z" fill="#FAFAFA"/>
<path d="M22732.8 23469.7C22609.3 23579.2 22566.4 23828.1 22566.4 23828.1C22550.4 23921.6 22381.4 23935.6 22397.4 23845.4C22423.2 23721.3 22473 23603.5 22544 23498.5C22601.9 23468 22668.4 23457.8 22732.8 23469.7Z" fill="#FAFAFA"/>
<path d="M22386.6 23512.6C22293.4 23603.8 22232.5 23722.9 22213.1 23851.8C22195.8 23941.4 22055 23940.1 22065.3 23851.8C22065.3 23851.8 22081.3 23631 22213.1 23527.9C22238.7 23511.6 22267.8 23501.7 22298 23499C22328.2 23496.3 22358.6 23501 22386.6 23512.6Z" fill="#FAFAFA"/>
<path d="M24038.4 22641.6C24038.4 22641.6 24016 23178.5 23986.6 23354.5C23968.6 23459.5 23831 23569.6 23488.6 23558C23248 23549.7 23058.6 23569.6 23068.2 23381.4L23089.3 22832.9L24038.4 22641.6Z" fill="#FFA8A7"/>
<path d="M24575.4 21373.1C24563.2 21519.6 24543.4 21652.1 24603.5 21813.4C24689.3 22045.1 24871 22151.3 24977.9 22242.2C25090.4 22353.6 25194.1 22473.4 25288.3 22600.6C25393.3 22728.6 25420.8 22804.8 25578.2 22944.3C25656.7 23004.7 25749.5 23043.7 25847.5 23057.5C25945.6 23071.3 26045.5 23059.4 26137.6 23023C26273.9 22964.8 26321.3 22918.7 26313 22709.4C26304.6 22500.1 25637.8 22429.1 25637.8 22429.1L24575.4 21373.1Z" fill="#263238"/>
<path d="M26226.6 22086C26283.5 22106.5 26297.6 22209.6 26306.6 22414.4C26313 22569.2 26381.4 22798.4 26156.8 22893.7C25975.7 22972.4 25686.4 22920 25564.2 22774C25411.8 22591.6 25308.2 22431 25090.6 22208.9C24898.6 22016.9 24706.6 21952.9 24621.4 21565.7C24567 21317.4 24609.9 21215 24785.3 21144C25026.6 21046 25404.8 21365.4 25594.2 21416C25756.8 21458.8 26169.6 22065.6 26226.6 22086Z" fill="#37474F"/>
<path d="M25594.2 21416L25562.2 21405.1C25454.3 21409.1 25349.4 21441.3 25257.8 21498.4C25166.1 21555.6 25091.1 21635.7 25040 21730.8C25008 21798 25104 21850.5 25168 21798C25302.4 21542 25578.9 21487 25689.6 21474.8C25662.4 21448.7 25629.8 21428.6 25594.2 21416Z" fill="#FAFAFA"/>
<path d="M25749.8 21532.4C25648.5 21541.9 25551.1 21576.4 25466.4 21632.8C25381.8 21689.2 25312.4 21765.8 25264.6 21855.6C25232.6 21919.6 25331.8 21975.3 25392.6 21919.6C25438.3 21839.5 25500.9 21770.4 25576.1 21717C25651.3 21663.6 25737.2 21627.3 25827.8 21610.5C25800.3 21584.9 25774.7 21557.4 25749.8 21532.4Z" fill="#FAFAFA"/>
<path d="M26259.2 21716.1L26226.6 22148.1C26226.6 22148.1 25952 22348.4 25558.4 22164.7C25546.9 22141.1 25513.6 21754.5 25513.6 21754.5L26259.2 21716.1Z" fill="#FFA8A7"/>
<path d="M24732.2 21850.5C24732.2 21850.5 24750.7 21391.6 25402.9 21328.3L25440.6 21348.1C25366.4 21233.1 25252.6 21149.2 25120.6 21112.6C24904.3 21056.9 24732.8 21112.6 24618.9 21249.6C24505 21386.5 24619.5 21761.6 24732.2 21850.5Z" fill="#FAFAFA"/>
<path d="M26449.3 18838.7C26355.8 18082.8 26321.3 17661.7 26321.3 17661.7C26321.3 17661.7 26302.7 16597.4 26367.4 15613.7C26395.5 15182.4 26410.2 14704.9 26419.2 14269.7C26431.1 13790.5 26393 13311.3 26305.3 12840C26305.3 12840 22958.7 12174.4 22917.1 13401.9C22866.6 14873.9 22873 17389.7 22816 18350.4C22784.6 18889.9 22839 19337.2 22873 20385.6C22900.5 21254.7 22892.2 23393.6 22892.2 23393.6C23260.8 23899.8 24131.2 23513.9 24131.2 23513.9C24131.2 23513.9 24400 20510.4 24439.7 19889.6C24481.9 19222 24411.5 18884.1 24411.5 18884.1L24756.5 15774.4C24756.5 15774.4 24782.7 16772.1 24812.2 17310.4C24841.6 17848.6 24920.3 18179.5 25060.5 19183.6C25182.1 20055.3 25440.6 22280 25440.6 22280C25888.6 22544.9 26321.3 22280 26321.3 22280C26321.3 22280 26542.7 19594.5 26449.3 18838.7Z" fill="#455A64"/>
<path d="M25992.3 14543.6C25992.3 14543.6 25573.1 15078.7 25032.3 15308.4C25032.3 15308.4 24798.1 17189.4 24800 17152.3L24739.2 15259.2C24739.2 15259.2 25544.3 14903.3 25992.3 14543.6Z" fill="#37474F"/>
<path d="M25980.8 8497.55C26341.1 8416.91 26748.8 8674.19 27020.2 9248.27C27282.6 9797.39 27999.4 11184.3 28016.6 11572.8C28035.2 11975.3 26244.5 13196.4 26288.6 13172.8C26302.7 13165.7 25979.5 12249.2 25979.5 12249.2L26849.3 11529.2L26376.3 10555.2L25980.8 8497.55Z" fill="#FFA8A7"/>
<path d="M25791.4 8411.15C26094.7 8374.03 26644.5 8488.59 26854.4 8853.39C27159 9381.39 27436.8 9991.95 27790.7 10781.1C27790.7 10781.1 27528.3 11349.4 26773.1 11403.2L26320.6 10609.6L25791.4 8411.15Z" fill="#37474F"/>
<path d="M24264.3 7935.63L24316.8 9055.63L25426.6 8996.11L25392.6 7694.99L24264.3 7935.63Z" fill="#FFA8A7"/>
<path d="M26516.5 8975C26423 8669.72 26100.5 8418.2 25692.8 8406.04C25601.9 8406.04 25411.2 8406.04 25411.2 8406.04C25365.1 8594.84 24787.2 8662.03 24293.1 8548.75C24144 8588.43 23525.1 8740.75 23397.1 8779.15C23041.9 8896.91 22932.5 9259.15 22877.4 10417.6C22877.4 10417.6 22888.3 12701.1 22877.4 13791C23502.1 14120.6 24467.2 14079.6 25153.9 14009.9C26233 13901.1 26393.6 13510 26393.6 13510C26348.2 12874.5 26375.7 12635.2 26393.6 12008C26407 11536.3 26542.7 11037.7 26585.6 10503.3C26649 9709.07 26579.8 9184.92 26516.5 8975Z" fill="#132346"/>
<path d="M24090.9 8148.11C23834.9 8130.19 23514.9 8334.35 23432.3 8771.47L23641 8715.79L24090.9 8148.11Z" fill="#132346"/>
<path opacity="0.3" d="M24090.9 8148.11C23834.9 8130.19 23514.9 8334.35 23432.3 8771.47L23641 8715.79L24090.9 8148.11Z" fill="black"/>
<path d="M24278.4 8241.55C24470.4 8305.55 25030.4 8296.59 25217.9 8241.55C25405.4 8186.51 25403.5 8103.31 25403.5 8103.31V8009.23C25511.7 8008.93 25617.3 8041.76 25706.2 8103.31C25825.9 8200.59 26032 8551.31 26026.2 8719.63C26020.5 8887.95 25660.8 9332.11 24967 9321.23C24273.3 9310.35 23883.5 9053.71 23763.8 8884.75L23643.5 8715.15C23643.5 8715.15 23808 8377.23 23969.9 8235.15C24053 8154.68 24159.4 8102.68 24273.9 8086.67L24278.4 8241.55Z" fill="#132346"/>
<path opacity="0.2" d="M24278.4 8241.55C24470.4 8305.55 25030.4 8296.59 25217.9 8241.55C25405.4 8186.51 25403.5 8103.31 25403.5 8103.31V8009.23C25511.7 8008.93 25617.3 8041.76 25706.2 8103.31C25825.9 8200.59 26032 8551.31 26026.2 8719.63C26020.5 8887.95 25660.8 9332.11 24967 9321.23C24273.3 9310.35 23883.5 9053.71 23763.8 8884.75L23643.5 8715.15C23643.5 8715.15 23808 8377.23 23969.9 8235.15C24053 8154.68 24159.4 8102.68 24273.9 8086.67L24278.4 8241.55Z" fill="black"/>
<path d="M23517.4 6562.19C23517.4 6562.19 23253.1 6963.47 23283.2 7002.51C23313.3 7041.55 23507.8 7078.03 23507.8 7078.03L23517.4 6562.19Z" fill="#F28F8F"/>
<path d="M24252.2 5451.15C23717.1 5564.43 23503.4 5721.23 23470.1 6635.79C23438.1 7525.39 23550.1 7818.51 23666.6 7938.19C23745.3 8018.83 24183.7 8033.55 24404.5 7972.11C24681 7895.95 25306.2 7674.51 25598.7 7227.79C25943 6701.71 26033.3 5988.75 25662.7 5696.27C25146.2 5284.75 24470.4 5405.07 24252.2 5451.15Z" fill="#FFA8A7"/>
<path d="M23666.6 7937.55C23730.6 8001.55 24037.1 8025.87 24267.5 7997.71L24264.3 7865.23C24073.4 7935.65 23868.7 7960.42 23666.6 7937.55Z" fill="#F28F8F"/>
<path d="M23399 5794.83C23532.3 5890.39 23697.7 5930.12 23859.8 5905.55C23856.6 5977.26 23875.9 6048.18 23914.9 6108.43C23969.2 6190.59 24051.5 6250.19 24146.6 6276.11C24088 6390.93 24056.9 6517.78 24055.7 6646.67C24052.1 6687.13 24060.8 6727.73 24080.6 6763.15C24086.8 6776.03 24096.4 6786.9 24108.5 6794.51C24120.6 6802.12 24134.5 6806.15 24148.8 6806.15C24163.1 6806.15 24177 6802.12 24189.1 6794.51C24201.2 6786.9 24210.8 6776.03 24217 6763.15C24247.1 6695.07 24284.9 6630.65 24329.6 6571.15C24387.6 6501.73 24469.2 6456.15 24558.7 6443.15C24894.7 6406.67 24937 6846.35 24802.6 7028.75C24582.4 7326.99 24395.5 7124.75 24395.5 7124.75C24386.9 7264.56 24408.2 7404.59 24457.8 7535.56C24507.5 7666.53 24584.4 7785.45 24683.5 7884.43C24922.4 7954.81 25175.5 7961.21 25417.6 7902.99C25715.8 7492.75 25903.4 7293.07 26062.7 6939.15C26399.4 6189.71 26236.8 5719.31 25976.3 5520.91C25925.1 5175.95 25653.1 5021.07 25342.7 4950.03C24879.4 4843.15 24446.7 5118.35 23987.2 5014.03C23911.8 4998.25 23837.2 4978.59 23763.8 4955.15C23735.6 4941.9 23703.3 4939.84 23673.6 4949.39C23657.1 4960.34 23644.2 4975.87 23636.5 4994.07C23628.8 5012.27 23626.5 5032.34 23630.1 5051.79C23635.8 5140.11 23725.4 5238.03 23770.9 5285.39C23670.5 5294.58 23569.4 5288.75 23470.7 5268.11C23436.5 5261.7 23401.3 5261.7 23367 5268.11C23329.5 5283.43 23297.7 5310.26 23276.3 5344.75C23254.9 5379.25 23245 5419.64 23248 5460.11C23248.4 5523.36 23262 5585.83 23288 5643.48C23314.1 5701.14 23351.9 5752.7 23399 5794.83Z" fill="#263238"/>
<path d="M25984.6 5632.27L26304.6 5440.27C26279.2 5397.84 26237.9 5367.26 26189.9 5355.26C26141.9 5343.25 26091.1 5350.81 26048.6 5376.27C26006.2 5401.74 25975.6 5443.01 25963.6 5491.02C25951.6 5539.03 25959.2 5589.84 25984.6 5632.27Z" fill="#263238"/>
<path d="M21814.4 10673.6C21741.9 10388.5 21671.9 10103.1 21604.5 9817.23C21540.5 9554.19 21441.9 9249.55 21532.2 8980.75C21583.4 8863.36 21647.9 8752.14 21724.2 8649.23C21790.2 8540.76 21845.9 8426.34 21890.6 8307.47C21913 8249.87 21933.4 8190.99 21954.6 8132.75C21975.7 8074.51 22005.8 8041.23 21991.7 7985.55C21945 7803.15 21709.4 8042.51 21661.4 8117.39C21640.1 8156.7 21615.3 8193.97 21587.2 8228.75C21556.5 8261.39 21481.6 8302.35 21445.8 8254.35C21433.8 8235.09 21427.2 8213.01 21426.6 8190.35C21402.2 7909.39 21503.4 7657.87 21587.2 7395.47C21600.4 7361.02 21608.4 7324.78 21610.9 7287.95C21612.4 7269.56 21609.9 7251.06 21603.6 7233.72C21597.3 7216.38 21587.4 7200.6 21574.4 7187.47C21553.5 7171.47 21528.8 7161.26 21502.7 7157.89C21476.7 7154.52 21450.2 7158.1 21425.9 7168.27C21378.6 7184.27 21337.6 7214.35 21290.2 7229.07C21242.9 7243.79 21207.7 7243.79 21166.1 7254.67C21067.4 7276.67 20972.3 7312.66 20883.8 7361.55C20730.2 7451.79 20662.4 7583.63 20622.1 7751.31C20573.6 7957.27 20557.2 8169.47 20573.4 8380.43C20584.3 8520.59 20609.3 8658.83 20626.6 8797.07L20684.2 9259.79C20723.2 9568.27 20734.7 11109.4 20787.8 11416C20841 11722.5 20943.4 11928 21185.9 12029.7C21537.9 12173.1 22106.9 11525.4 22430.1 11190L21814.4 10673.6Z" fill="#FFA8A7"/>
<path d="M21685.8 10498.8C21459.2 10668.4 21177 10950.7 21120 11233.6C21120 11233.6 21063.7 10724.8 21685.8 10273.6V10498.8Z" fill="#F28F8F"/>
<path d="M23379.2 8786.2C23161.6 8806.68 22803.2 8814.36 22438.4 9206.68C22015.4 9664.92 21363.2 10568.6 21363.2 10568.6C21363.2 10568.6 21448.3 11288 22140.8 11545.9C22140.8 11545.9 23147.5 10585.9 23363.8 10172.4C23580.2 9759 23628.8 9073.56 23379.2 8786.2Z" fill="#37474F"/>
<path d="M23089.3 7265.55L22814.1 7117.71L22972.2 6982.67L22400.6 6715.15L22650.2 6570.51L22034.6 6242.83L22400.6 6566.03L22103 6715.15L22774.4 7005.71L22608.6 7171.47L23089.3 7265.55Z" fill="#132346"/>
<path d="M23229.4 6902.67L23050.2 6731.15L23148.2 6658.83L22990.7 6471.95L23141.8 6420.75L23089.3 6183.95L23195.5 6439.31L23089.3 6485.39L23259.5 6672.27L23144.3 6754.19L23229.4 6902.67Z" fill="#132346"/>
<path d="M23125.1 7536.27L22787.2 7799.95L22662.4 7616.27L22366.7 7776.91L22245.8 7549.71L21788.2 7666.83L22317.4 7413.39L22469.1 7622.67L22714.9 7490.83L22817.3 7666.83L23125.1 7536.27Z" fill="#132346"/>
<path d="M20775.7 12255C20786 12246.5 20799.2 12242.3 20812.5 12243.5C20825.8 12244.7 20838.1 12251.2 20846.7 12261.4C20912.2 12334.9 20997.2 12388.2 21091.8 12415.2C21186.4 12442.2 21286.8 12441.7 21381.1 12413.7C21387.6 12411.4 21394.4 12410.5 21401.2 12410.9C21408 12411.4 21414.7 12413.2 21420.7 12416.3C21426.8 12419.3 21432.2 12423.6 21436.6 12428.9C21441 12434.1 21444.3 12440.1 21446.3 12446.7C21448.3 12453.2 21448.9 12460.1 21448.2 12466.8C21447.5 12473.6 21445.4 12480.2 21442 12486.1C21438.7 12492.1 21434.2 12497.3 21428.8 12501.5C21423.4 12505.6 21417.2 12508.7 21410.6 12510.4C21297.4 12543.8 21177 12544.3 21063.7 12511.6C20950.3 12479 20848.6 12414.6 20770.6 12326C20766.2 12321.1 20762.8 12315.3 20760.7 12309C20758.6 12302.7 20757.7 12296.1 20758.2 12289.4C20758.7 12282.8 20760.5 12276.4 20763.5 12270.5C20766.5 12264.5 20770.6 12259.3 20775.7 12255Z" fill="#E0E0E0"/>
<path d="M20826.9 12593.6C20835.9 12586.1 20847.2 12581.9 20858.9 12581.9C20870.6 12581.9 20881.9 12586.1 20890.9 12593.6C20943 12631.2 21002.7 12657 21065.8 12669.2C21128.9 12681.4 21194 12679.6 21256.3 12664C21269.6 12661.5 21283.2 12664.4 21294.3 12671.9C21305.5 12679.5 21313.2 12691.1 21315.8 12704.3C21317.1 12710.7 21317.1 12717.4 21315.8 12723.9C21314.6 12730.4 21312 12736.5 21308.3 12742C21304.6 12747.5 21299.9 12752.2 21294.3 12755.8C21288.8 12759.4 21282.7 12761.9 21276.2 12763.2C21199.1 12781.1 21119 12781.8 21041.6 12765.3C20964.1 12748.8 20891.3 12715.5 20828.2 12667.8C20823.1 12663.5 20819 12658.2 20816 12652.3C20813 12646.4 20811.2 12640 20810.7 12633.3C20810.2 12626.7 20811.1 12620.1 20813.2 12613.8C20815.3 12607.5 20818.7 12601.7 20823 12596.8C20824.2 12595.5 20825.5 12594.4 20826.9 12593.6Z" fill="#E0E0E0"/>
<path d="M27111 8714.51C27105.1 8717.58 27098.7 8719.43 27092 8719.96C27085.4 8720.49 27078.7 8719.69 27072.4 8717.6C27066.1 8715.52 27060.2 8712.19 27055.2 8707.81C27050.2 8703.43 27046.1 8698.09 27043.2 8692.11C26996.5 8605.51 26926.2 8533.92 26840.4 8485.67C26754.7 8437.41 26657 8414.46 26558.7 8419.47C26552.1 8419.85 26545.4 8418.92 26539.2 8416.73C26532.9 8414.53 26527.1 8411.13 26522.1 8406.7C26512.1 8397.76 26506 8385.2 26505.3 8371.79C26504.5 8358.38 26509.1 8345.22 26518.1 8335.2C26527 8325.18 26539.6 8319.12 26553 8318.35C26670.9 8312.18 26788.2 8339.79 26891 8397.95C26993.9 8456.1 27078 8542.39 27133.4 8646.67C27139.3 8658.67 27140.2 8672.47 27136 8685.15C27131.8 8697.82 27122.9 8708.35 27111 8714.51Z" fill="#E0E0E0"/>
<path d="M27139.2 8375.31C27128.5 8380.95 27116.1 8382.5 27104.3 8379.68C27092.5 8376.85 27082.2 8369.84 27075.2 8359.95C27033.9 8311.69 26982.7 8272.87 26925 8246.15C26867.4 8219.42 26804.7 8205.41 26741.1 8205.07C26734.5 8204.82 26728 8203.26 26721.9 8200.49C26715.9 8197.72 26710.4 8193.78 26705.9 8188.91C26701.4 8184.03 26697.9 8178.32 26695.6 8172.09C26693.3 8165.86 26692.2 8159.23 26692.5 8152.59C26692.7 8145.95 26694.3 8139.43 26697.1 8133.39C26699.8 8127.35 26703.8 8121.92 26708.6 8117.4C26713.5 8112.89 26719.2 8109.38 26725.5 8107.07C26731.7 8104.76 26738.3 8103.7 26745 8103.95C26823.9 8104.74 26901.7 8122.8 26972.9 8156.85C27044.1 8190.91 27107 8240.13 27157.1 8301.07C27164.3 8311.9 27167 8325.12 27164.6 8337.92C27162.3 8350.71 27155 8362.06 27144.3 8369.55L27139.2 8375.31Z" fill="#E0E0E0"/>
<path d="M28033.9 12064.3C28027.5 12052.6 28026 12038.8 28029.7 12025.9C28033.4 12013.1 28042.1 12002.3 28053.8 11995.8C28138.1 11945.1 28206.2 11871.5 28250.3 11783.6C28294.4 11695.7 28312.5 11597 28302.7 11499.2C28301.9 11492.5 28302.5 11485.8 28304.3 11479.4C28306.1 11473 28309.2 11467.1 28313.4 11461.9C28317.6 11456.7 28322.7 11452.4 28328.6 11449.2C28334.5 11446.1 28340.9 11444.1 28347.5 11443.5C28360.8 11442 28374.2 11446 28384.6 11454.4C28395.1 11462.8 28401.8 11475 28403.2 11488.3C28414.6 11605.3 28392.6 11723.2 28339.7 11828.2C28286.8 11933.2 28205.2 12021.1 28104.3 12081.6C28098.6 12085.1 28092.2 12087.5 28085.5 12088.6C28078.9 12089.7 28072 12089.4 28065.5 12087.8C28058.9 12086.2 28052.7 12083.3 28047.3 12079.2C28041.9 12075.2 28037.3 12070.1 28033.9 12064.3Z" fill="#E0E0E0"/>
<path d="M28373.8 12076.4C28368 12066 28366.1 12053.9 28368.4 12042.2C28370.6 12030.6 28376.8 12020 28385.9 12012.4C28432.4 11969 28468.8 11916 28492.8 11857.1C28516.8 11798.2 28527.7 11734.8 28524.8 11671.3C28524.8 11657.9 28530.1 11645 28539.6 11635.6C28549.1 11626.1 28562 11620.8 28575.4 11620.8C28588.8 11620.8 28601.6 11626.1 28611.1 11635.6C28620.6 11645 28625.9 11657.9 28625.9 11671.3C28628.7 11750.1 28614.3 11828.6 28583.8 11901.3C28553.3 11974 28507.4 12039.2 28449.3 12092.4C28444.1 12096.6 28438.1 12099.6 28431.7 12101.4C28425.3 12103.2 28418.6 12103.8 28412 12103C28405.4 12102.2 28399.1 12100.2 28393.3 12096.9C28387.5 12093.7 28382.4 12089.3 28378.2 12084.1L28373.8 12076.4Z" fill="#E0E0E0"/>
<path d="M22486.4 18161.6C22498.4 18167.6 22507.5 18178.1 22511.8 18190.8C22516.1 18203.5 22515.2 18217.3 22509.4 18229.4C22468.9 18319 22454.7 18418.3 22468.6 18515.6C22482.4 18613 22523.6 18704.4 22587.5 18779.2C22596.2 18789.5 22600.4 18802.8 22599.3 18816.2C22598.3 18829.6 22592 18842 22581.8 18850.8C22571.6 18859.5 22558.5 18863.9 22545.2 18862.9C22531.9 18861.9 22519.5 18855.8 22510.7 18845.7C22434 18755.7 22384.6 18645.7 22368.2 18528.6C22351.9 18411.5 22369.4 18292.1 22418.6 18184.6C22424.6 18172.6 22435.1 18163.5 22447.8 18159.2C22460.5 18154.9 22474.3 18155.8 22486.4 18161.6Z" fill="#E0E0E0"/>
<path d="M22199.7 18344C22210.6 18349.1 22219.3 18358 22224.3 18369.1C22229.2 18380.1 22230 18392.5 22226.6 18404.1C22213.1 18466.3 22213.3 18530.6 22227.1 18592.7C22240.9 18654.8 22268 18713.2 22306.6 18763.8C22314.1 18774.8 22317.1 18788.3 22314.8 18801.5C22312.5 18814.6 22305.2 18826.4 22294.4 18834.2C22283.4 18841.9 22269.9 18845 22256.7 18842.7C22243.5 18840.4 22231.7 18833 22224 18822C22176.6 18758.8 22143.5 18685.9 22127.1 18608.5C22110.8 18531.1 22111.5 18451.1 22129.3 18374C22131.2 18367.6 22134.5 18361.6 22138.8 18356.5C22143.1 18351.3 22148.3 18347.1 22154.3 18344C22160.3 18340.9 22166.8 18339 22173.5 18338.4C22180.2 18337.9 22186.9 18338.7 22193.3 18340.8L22199.7 18344Z" fill="#E0E0E0"/>
<path d="M18725.1 590.358C18722 530.679 18704.7 472.596 18674.8 420.867C18644.9 369.138 18603.1 325.235 18553 292.758L18413.4 211.478C18360.1 184.782 18301.3 170.883 18241.6 170.883C18181.9 170.883 18123.1 184.782 18069.8 211.478L14828.2 2084.76C14778.1 2117.31 14736.4 2161.23 14706.4 2212.95C14676.5 2264.66 14659.2 2322.7 14656 2382.36V4058.52C14659.3 4118.16 14676.6 4176.19 14706.5 4227.89C14736.4 4279.6 14778.1 4323.53 14828.2 4356.12L14968.3 4436.76C15021.5 4463.9 15080.4 4478.05 15140.2 4478.05C15199.9 4478.05 15258.8 4463.9 15312 4436.76L18553 2564.12C18603.1 2531.64 18644.9 2487.74 18674.8 2436.01C18704.7 2384.28 18722 2326.2 18725.1 2266.52V590.358Z" fill="#132346"/>
<path opacity="0.5" d="M18725.1 590.358C18722 530.679 18704.7 472.596 18674.8 420.867C18644.9 369.138 18603.1 325.235 18553 292.758L18413.4 211.478C18360.1 184.782 18301.3 170.883 18241.6 170.883C18181.9 170.883 18123.1 184.782 18069.8 211.478L14828.2 2084.76C14778.1 2117.31 14736.4 2161.23 14706.4 2212.95C14676.5 2264.66 14659.2 2322.7 14656 2382.36V4058.52C14659.3 4118.16 14676.6 4176.19 14706.5 4227.89C14736.4 4279.6 14778.1 4323.53 14828.2 4356.12L14968.3 4436.76C15021.5 4463.9 15080.4 4478.05 15140.2 4478.05C15199.9 4478.05 15258.8 4463.9 15312 4436.76L18553 2564.12C18603.1 2531.64 18644.9 2487.74 18674.8 2436.01C18704.7 2384.28 18722 2326.2 18725.1 2266.52V590.358Z" fill="white"/>
<path opacity="0.2" d="M14656 4058.52C14659.3 4118.16 14676.6 4176.19 14706.5 4227.89C14736.4 4279.6 14778.1 4323.53 14828.2 4356.12L14968.3 4436.76C15016.7 4461.16 15069.8 4475.02 15123.9 4477.45C15178.1 4479.88 15232.2 4470.81 15282.6 4450.84C15201.3 4481.56 15139.8 4436.12 15139.8 4337.56V2661.4C15141.9 2601.47 15159.3 2543.08 15190.4 2491.8L14706.6 2212.76C14675.4 2264 14658 2322.42 14656 2382.36V4058.52Z" fill="black"/>
<path opacity="0.3" d="M18719.4 541.716C18699.5 468.756 18633 445.076 18553.6 491.156L15312 2363.8C15261 2395.1 15219.1 2439.23 15190.4 2491.8L14707.2 2212.76C14735.8 2160.36 14777.5 2116.26 14828.2 2084.76L18069.1 212.116C18122.3 184.977 18181.2 170.828 18241 170.828C18300.7 170.828 18359.6 184.977 18412.8 212.116L18553.6 292.756C18596.6 320.89 18633.5 357.458 18662 400.25C18690.5 443.042 18710 491.167 18719.4 541.716Z" fill="white"/>
<path d="M15140.5 3203.48L14657.3 2924.44L14074.9 3485.08C14066.1 3493.9 14059.5 3504.59 14055.5 3516.35C14051.5 3528.12 14050.2 3540.64 14051.7 3552.97C14053.3 3565.31 14057.6 3577.13 14064.4 3587.54C14071.2 3597.96 14080.2 3606.69 14090.9 3613.08L14566.4 3889.56C14586.1 3899.86 14608.2 3904.51 14630.4 3903L15142.4 3805.08V3203.48H15140.5Z" fill="#132346"/>
<path opacity="0.5" d="M15140.5 3203.48L14657.3 2924.44L14074.9 3485.08C14066.1 3493.9 14059.5 3504.59 14055.5 3516.35C14051.5 3528.12 14050.2 3540.64 14051.7 3552.97C14053.3 3565.31 14057.6 3577.13 14064.4 3587.54C14071.2 3597.96 14080.2 3606.69 14090.9 3613.08L14566.4 3889.56C14586.1 3899.86 14608.2 3904.51 14630.4 3903L15142.4 3805.08V3203.48H15140.5Z" fill="white"/>
<path opacity="0.3" d="M14566.4 3889.56L14310.4 3743L14280.3 3723.16L14143.4 3643.8L14126.7 3633.56L14090.2 3612.44C14079.6 3606.05 14070.5 3597.31 14063.7 3586.9C14056.9 3576.49 14052.6 3564.67 14051.1 3552.33C14049.5 3540 14050.8 3527.48 14054.8 3515.71C14058.8 3503.95 14065.5 3493.25 14074.2 3484.44L14656.6 2923.8L15140.5 3203.48L14558.1 3761.56C14548.8 3769.77 14541.6 3779.99 14536.9 3791.44C14532.2 3802.88 14530.2 3815.24 14531 3827.59C14531.8 3839.93 14535.4 3851.93 14541.5 3862.67C14547.7 3873.41 14556.2 3882.61 14566.4 3889.56Z" fill="white"/>
<path d="M16087 2688.28C16020.2 2731.77 15964.5 2790.43 15924.6 2859.49C15884.7 2928.55 15861.6 3006.06 15857.3 3085.72C15857.3 3231.64 15960.3 3291.16 16087 3218.2C16153.8 3174.67 16209.4 3115.98 16249.2 3046.92C16289 2977.85 16312 2900.36 16316.2 2820.76C16316.2 2673.56 16213.8 2615.32 16087 2688.28Z" fill="white"/>
<path d="M16932.5 2199.32C16865.7 2242.84 16810.1 2301.53 16770.3 2370.59C16730.5 2439.66 16707.6 2517.15 16703.4 2596.76C16703.4 2742.68 16805.8 2802.2 16932.5 2728.6C16999.2 2685.13 17054.7 2626.55 17094.5 2557.6C17134.3 2488.66 17157.3 2411.29 17161.6 2331.8C17160.3 2185.24 17059.2 2125.72 16932.5 2199.32Z" fill="white"/>
<path d="M17777.9 1709.72C17711.2 1753.36 17655.8 1812.07 17616 1881.11C17576.2 1950.15 17553.2 2027.58 17548.8 2107.16C17548.8 2253.72 17651.2 2312.6 17777.9 2239.64C17844.9 2196.08 17900.6 2137.32 17940.5 2068.14C17980.4 1998.96 18003.5 1921.32 18007.7 1841.56C18007.7 1696.28 17904.6 1636.76 17777.9 1709.72Z" fill="white"/>
<path d="M24964.5 3876.12L24732.2 3441.56L24919 2902.04V2569.88L24346.9 2900.12V3230.35L24592.6 3656.6C24596.7 3662.96 24602.5 3668.06 24609.3 3671.31L24964.5 3876.12Z" fill="#132346"/>
<path opacity="0.2" d="M24964.5 3876.12L24732.2 3441.56L24919 2902.04V2569.88L24346.9 2900.12V3230.35L24592.6 3656.6C24596.7 3662.96 24602.5 3668.06 24609.3 3671.31L24964.5 3876.12Z" fill="black"/>
<path d="M26702.1 419.476C26698.9 359.965 26681.7 302.046 26651.9 250.44C26622.1 198.834 26580.5 155.002 26530.6 122.516L26391 41.8757C26337.9 14.7418 26279.2 0.59375 26219.5 0.59375C26159.9 0.59375 26101.1 14.7418 26048 41.8757L22814.1 1910.04C22764.4 1942.92 22723 1986.93 22693.2 2038.59C22663.4 2090.24 22646.1 2148.12 22642.6 2207.64V3879.96C22645.7 3939.47 22662.9 3997.39 22692.7 4048.99C22722.5 4100.6 22764.1 4144.43 22814.1 4176.92L22953.6 4257.56C23006.9 4284.15 23065.6 4297.99 23125.1 4297.99C23184.7 4297.99 23243.4 4284.15 23296.6 4257.56L24704.6 3438.36L24950.4 3863.32C24953.9 3869 24959 3873.58 24965 3876.53C24971 3879.49 24977.7 3880.7 24984.4 3880.04C24991.1 3879.37 24997.4 3876.85 25002.7 3872.76C25008 3868.68 25012.1 3863.19 25014.4 3856.92L25274.2 3108.76L26527.4 2388.76C26577.3 2356.27 26618.9 2312.44 26648.7 2260.83C26678.5 2209.23 26695.7 2151.31 26698.9 2091.8L26702.1 419.476Z" fill="#132346"/>
<path d="M23611.5 2531.47L26197.1 1038.36C26273.9 994.195 26336 1025.55 26336 1108.75C26332.5 1155.27 26318.1 1200.31 26294 1240.23C26269.9 1280.14 26236.7 1313.82 26197.1 1338.51L23611.5 2831.64C23535.4 2875.8 23473.3 2844.44 23473.3 2761.24C23476.7 2714.79 23491 2669.81 23515.1 2629.9C23539.1 2590 23572.1 2556.28 23611.5 2531.47Z" fill="white"/>
<path d="M23611.5 3196.44L26197.1 1703.96C26273.9 1659.8 26336 1691.16 26336 1773.72C26332.6 1820.34 26318.3 1865.51 26294.1 1905.54C26270 1945.58 26236.8 1979.35 26197.1 2004.12L23611.5 3496.6C23535.4 3541.4 23473.3 3509.4 23473.3 3426.84C23476.6 3380.28 23490.9 3335.17 23514.9 3295.15C23538.9 3255.12 23572 3221.31 23611.5 3196.44Z" fill="white"/>
<path opacity="0.2" d="M22642.6 3879.96C22645.7 3939.47 22662.9 3997.38 22692.7 4048.99C22722.5 4100.6 22764.1 4144.43 22814.1 4176.92L22953.6 4257.56C23001.9 4281.86 23054.9 4295.68 23108.9 4298.1C23162.9 4300.53 23216.9 4291.51 23267.2 4271.64C23186.6 4301.72 23125.1 4256.27 23125.1 4158.35V2486.04C23127.2 2426.39 23144.3 2368.25 23175 2317.08L22692.5 2038.04C22661.8 2089.45 22644.6 2147.79 22642.6 2207.64V3879.96Z" fill="black"/>
<path opacity="0.2" d="M26696.3 369.555C26676.5 296.595 26609.9 273.555 26530.6 318.995L23296.6 2187.8C23245.7 2219.04 23204 2263.21 23175.7 2315.8L22693.1 2037.39C22721.8 1985.08 22763.5 1941.01 22814.1 1909.39L26047.4 40.595C26100.7 13.8991 26159.5 0 26219.2 0C26278.9 0 26337.7 13.8991 26391 40.595L26530.6 121.235C26573.6 149.156 26610.6 185.584 26639.1 228.285C26667.6 270.985 26687.1 319.058 26696.3 369.555Z" fill="white"/>
</svg>
