<svg width="28534" height="27080" viewBox="0 0 28534 27080" fill="none" xmlns="http://www.w3.org/2000/svg">
<path d="M28264 14321.3H27998.4V14275.9C27998.2 14151.8 27948.8 14032.9 27861.1 13945.2C27773.4 13857.5 27654.5 13808.2 27530.5 13808H27350.7C27226.5 13808 27107.5 13857.3 27019.6 13945C26931.8 14032.7 26882.4 14151.7 26882.2 14275.9V14321.3H26617.2C26581.8 14321.2 26546.8 14328.1 26514 14341.6C26481.3 14355.1 26451.6 14375 26426.5 14400C26401.5 14425.1 26381.7 14454.8 26368.1 14487.5C26354.6 14520.3 26347.7 14555.3 26347.8 14590.7V15818.3C26347.8 15889.7 26376.2 15958.2 26426.7 16008.8C26477.2 16059.3 26545.8 16087.7 26617.2 16087.7H28264C28335.4 16087.5 28403.8 16059.1 28454.3 16008.6C28504.8 15958.1 28533.2 15889.7 28533.4 15818.3V14590.7C28533.4 14519.3 28505 14450.7 28454.5 14400.2C28404 14349.7 28335.4 14321.3 28264 14321.3ZM27010.2 14275.9C27010.4 14185.7 27046.3 14099.2 27110.2 14035.5C27174 13971.8 27260.5 13936 27350.7 13936H27530.5C27620.7 13936 27707.1 13971.8 27770.8 14035.6C27834.6 14099.3 27870.4 14185.7 27870.4 14275.9V14321.3H27010.2V14275.9Z" fill="#263238"/>
<path d="M27931.2 15079.1H27592V14740.5H27288.6V15079.1H26949.4V15383.1H27288.6V15721.6H27592V15383.1H27931.2V15079.1Z" fill="white"/>
<path d="M27739.2 7006.09C27686.4 7006.09 27634.2 6995.69 27585.4 6975.49C27536.7 6955.28 27492.5 6925.67 27455.2 6888.34C27417.9 6851.01 27388.4 6806.69 27368.2 6757.93C27348.1 6709.18 27337.8 6656.93 27337.9 6604.17V5521.29C27337.8 5468.54 27348.1 5416.29 27368.2 5367.54C27388.4 5318.78 27417.9 5274.46 27455.2 5237.13C27492.5 5199.8 27536.7 5170.19 27585.4 5149.98C27634.2 5129.78 27686.4 5119.37 27739.2 5119.38C27791.9 5119.37 27844.1 5129.78 27892.9 5149.98C27941.6 5170.19 27985.9 5199.8 28023.1 5237.13C28060.4 5274.46 28090 5318.78 28110.1 5367.54C28130.2 5416.29 28140.5 5468.54 28140.4 5521.29V6602.25C28140.8 6655.17 28130.6 6707.62 28110.6 6756.6C28090.6 6805.59 28061.1 6850.13 28023.8 6887.66C27986.5 6925.19 27942.2 6954.98 27893.3 6975.31C27844.5 6995.63 27792.1 7006.1 27739.2 7006.09Z" fill="white" stroke="#263238" stroke-linecap="round" stroke-linejoin="round"/>
<path d="M27739.2 7006.09C27686.4 7006.09 27634.2 6995.69 27585.4 6975.49C27536.7 6955.28 27492.5 6925.67 27455.2 6888.34C27417.9 6851.01 27388.4 6806.69 27368.2 6757.93C27348.1 6709.18 27337.8 6656.93 27337.9 6604.17V6063.38H28140.4V6604.17C28140.5 6656.93 28130.2 6709.18 28110.1 6757.93C28090 6806.69 28060.4 6851.01 28023.1 6888.34C27985.9 6925.67 27941.6 6955.28 27892.9 6975.49C27844.1 6995.69 27791.9 7006.09 27739.2 7006.09Z" fill="#263238" stroke="#263238" stroke-linecap="round" stroke-linejoin="round"/>
<path d="M25720.6 5411.22C25687.6 5370.01 25663.1 5322.68 25648.4 5271.96C25633.8 5221.24 25629.3 5168.13 25635.3 5115.67C25641.2 5063.21 25657.5 5012.45 25683.1 4966.3C25708.7 4920.14 25743.2 4879.51 25784.6 4846.74L26627.5 4169.62C26710.9 4103.27 26817.3 4072.74 26923.3 4084.74C27029.2 4096.74 27126.1 4150.28 27192.6 4233.62C27258.9 4316.98 27289.4 4423.26 27277.4 4529.1C27265.4 4634.94 27211.9 4731.69 27128.6 4798.1L26285.1 5474.58C26243.9 5507.53 26196.6 5532.03 26145.9 5546.68C26095.2 5561.33 26042.1 5565.84 25989.7 5559.96C25937.3 5554.07 25886.5 5537.91 25840.3 5512.38C25794.2 5486.86 25753.5 5452.48 25720.6 5411.22Z" fill="white" stroke="#263238" stroke-linecap="round" stroke-linejoin="round"/>
<path d="M25720.6 5411.22C25687.6 5370.01 25663.1 5322.68 25648.4 5271.96C25633.8 5221.24 25629.3 5168.13 25635.3 5115.67C25641.2 5063.21 25657.5 5012.45 25683.1 4966.3C25708.7 4920.15 25743.2 4879.51 25784.6 4846.74L26206.4 4508.18L26708.8 5134.74L26287 5472.66C26245.9 5506.01 26198.5 5530.89 26147.7 5545.87C26096.9 5560.84 26043.7 5565.61 25991 5559.89C25938.4 5554.18 25887.3 5538.1 25840.9 5512.59C25794.5 5487.07 25753.6 5452.62 25720.6 5411.22Z" fill="#263238" stroke="#263238" stroke-linecap="round" stroke-linejoin="round"/>
<path d="M21707.2 2464.66C21657.1 2464.68 21608.3 2480.34 21567.6 2509.46L20635.2 1785.62C20680.9 1701.03 20702.3 1605.47 20697.1 1509.47C20691.9 1413.47 20660.3 1320.77 20605.7 1241.62L21175.3 513.296C21223.5 531.884 21276.4 534.552 21326.2 520.909C21376.1 507.266 21420.2 478.028 21452.2 437.478C21484.3 396.927 21502.4 347.193 21504.1 295.556C21505.9 243.92 21491 193.095 21461.7 150.522C21432.4 107.948 21390.3 75.8631 21341.5 58.9639C21292.7 42.0648 21239.7 41.2394 21190.4 56.6085C21141.1 71.9776 21098 102.734 21067.4 144.374C21036.8 186.015 21020.3 236.352 21020.4 288.016C21020.2 337.807 21035.6 386.416 21064.6 426.896L20510.4 1136.66C20436 1074.07 20345.7 1033.44 20249.6 1019.3C20153.5 1005.17 20055.3 1018.11 19966.1 1056.65C19876.9 1095.2 19800.3 1157.84 19744.7 1237.53C19689.1 1317.23 19656.8 1410.84 19651.5 1507.86H19003.8C18996.7 1450.37 18969.3 1397.32 18926.4 1358.36C18883.5 1319.41 18828.1 1297.13 18770.2 1295.57C18712.3 1294.01 18655.8 1313.28 18610.9 1349.87C18566 1386.47 18535.7 1437.96 18525.5 1494.98C18515.4 1552.01 18526 1610.79 18555.5 1660.64C18585 1710.48 18631.4 1748.08 18686.3 1766.61C18741.2 1785.14 18800.9 1783.36 18854.6 1761.59C18908.3 1739.83 18952.4 1699.53 18978.8 1648.02H19663.6C19683.7 1741.07 19728.7 1826.9 19793.9 1896.28C19859 1965.66 19941.9 2015.95 20033.5 2041.75C20125.1 2067.55 20222.1 2067.89 20313.9 2042.72C20405.7 2017.55 20488.9 1967.82 20554.5 1898.9L21481.9 2620.18C21463.6 2668.29 21461.2 2720.99 21474.9 2770.58C21488.7 2820.17 21518 2864.05 21558.5 2895.81C21599 2927.57 21648.6 2945.54 21700.1 2947.1C21751.5 2948.67 21802.1 2933.74 21844.5 2904.5C21886.8 2875.26 21918.7 2833.23 21935.5 2784.57C21952.3 2735.91 21953.1 2683.16 21937.7 2634.03C21922.4 2584.9 21891.7 2541.96 21850.3 2511.49C21808.8 2481.01 21758.6 2464.6 21707.2 2464.66Z" fill="#263238"/>
<path d="M2765.08 7013.78C2687.56 7013.61 2613.27 6982.74 2558.45 6927.92C2503.64 6873.11 2472.77 6798.82 2472.6 6721.3V4289.3H3057.56V6721.3C3057.56 6798.87 3026.75 6873.26 2971.9 6928.11C2917.05 6982.96 2842.65 7013.78 2765.08 7013.78Z" fill="white" stroke="#263238" stroke-linecap="round" stroke-linejoin="round"/>
<path d="M2765.08 7013.78C2687.56 7013.61 2613.27 6982.74 2558.45 6927.92C2503.64 6873.11 2472.77 6798.82 2472.6 6721.3V5225.62H3057.56V6721.3C3057.56 6798.87 3026.75 6873.26 2971.9 6928.11C2917.05 6982.96 2842.65 7013.78 2765.08 7013.78Z" fill="#263238" stroke="#263238" stroke-linecap="round" stroke-linejoin="round"/>
<path d="M3141.4 4147.21H2389.4V4360.33H3141.4V4147.21Z" fill="white" stroke="#263238" stroke-linecap="round" stroke-linejoin="round"/>
<path d="M1878.68 7013.78C1801.16 7013.61 1726.87 6982.74 1672.05 6927.92C1617.24 6873.11 1586.37 6798.82 1586.2 6721.3V4289.3H2171.16V6721.3C2171.16 6798.87 2140.35 6873.26 2085.5 6928.11C2030.64 6982.96 1956.25 7013.78 1878.68 7013.78Z" fill="white" stroke="#263238" stroke-linecap="round" stroke-linejoin="round"/>
<path d="M1878.68 7013.78C1801.16 7013.61 1726.87 6982.74 1672.05 6927.92C1617.24 6873.11 1586.37 6798.82 1586.2 6721.3V5225.62H2171.16V6721.3C2171.16 6798.87 2140.35 6873.26 2085.5 6928.11C2030.64 6982.96 1956.25 7013.78 1878.68 7013.78Z" fill="#263238" stroke="#263238" stroke-linecap="round" stroke-linejoin="round"/>
<path d="M2255 4147.21H1503V4360.33H2255V4147.21Z" fill="white" stroke="#263238" stroke-linecap="round" stroke-linejoin="round"/>
<path d="M10317.1 1749.78L10550 1190.42C10554 1181.4 10560.6 1173.78 10568.9 1168.54C10577.2 1163.29 10586.9 1160.66 10596.8 1160.98C10606.6 1161.47 10616.1 1164.99 10623.9 1171.06C10631.7 1177.13 10637.4 1185.45 10640.3 1194.9L10922.5 2125.46L11137.6 1440.02C11140.5 1430.37 11146.4 1421.9 11154.5 1415.82C11162.5 1409.73 11172.3 1406.33 11182.4 1406.1C11192.3 1406.37 11202 1409.54 11210.2 1415.22C11218.4 1420.91 11224.7 1428.86 11228.4 1438.1L11348.1 1782.42H11995.2C12127.6 1644.03 12204.6 1461.83 12211.5 1270.42C12212.7 1091.63 12147.8 918.687 12029.3 784.81C11910.8 650.932 11747 565.557 11569.4 545.081C11391.8 524.605 11212.9 570.472 11067 673.873C10921.2 777.273 10818.6 930.917 10779.2 1105.3C10738.5 932.139 10635.6 779.967 10490.1 677.72C10344.5 575.473 10166.5 530.285 9989.81 550.751C9813.12 571.217 9650.12 655.909 9531.81 788.718C9413.49 921.527 9348.12 1093.19 9348.12 1271.06C9355.23 1448.32 9421.73 1618.05 9536.92 1752.98L10317.1 1749.78Z" fill="#263238"/>
<path d="M11314.2 1878.41C11304.2 1878.45 11294.5 1875.39 11286.4 1869.66C11278.2 1863.93 11272.1 1855.8 11268.8 1846.41L11185.6 1607.05L10967.3 2302.73C10964.2 2312.53 10958.1 2321.09 10949.8 2327.19C10941.5 2333.28 10931.5 2336.59 10921.2 2336.65C10910.9 2336.62 10900.9 2333.23 10892.7 2326.99C10884.5 2320.75 10878.6 2312.01 10875.8 2302.09L10587.2 1350.41L10395.2 1816.33C10391.5 1825.04 10385.4 1832.48 10377.5 1837.71C10369.7 1842.95 10360.4 1845.75 10351 1845.77H9614.36C9772.44 2022.41 9969.56 2178.57 10116.8 2323.85C10339.5 2544.01 10557.7 2771.85 10784.9 2984.33C11076.1 2696.97 11369.2 2408.33 11657.9 2120.97C11737.9 2040.97 11824.9 1961.61 11905.6 1878.41H11314.2Z" fill="#263238"/>
<path d="M517.95 16183.3L831.768 16292.1L1171.33 15313.2L857.513 15204.3L517.95 16183.3Z" fill="white" stroke="#263238" stroke-miterlimit="10"/>
<path d="M369.171 16338.7L853.502 16506.7L917.472 16322.3L433.141 16154.3L369.171 16338.7Z" fill="white" stroke="#263238" stroke-miterlimit="10"/>
<path d="M511.469 15456.3L1287.24 15725.4L1902.4 13951.9L1126.62 13682.8L511.469 15456.3Z" fill="white" stroke="#263238" stroke-miterlimit="10"/>
<path d="M888.68 14697.6L1461.29 14896.2L1800.85 13917.3L1228.24 13718.7L888.68 14697.6Z" fill="#263238" stroke="#263238" stroke-miterlimit="10"/>
<path d="M787.394 15407.2L1101.21 15516.1L1440.77 14537.1L1126.96 14428.3L787.394 15407.2Z" fill="#263238" stroke="#263238" stroke-miterlimit="10"/>
<path d="M456.697 15437.7L1343.12 15745.1L1420.1 15523.2L533.67 15215.7L456.697 15437.7Z" fill="white" stroke="#263238" stroke-miterlimit="10"/>
<path d="M1315.79 13645.8L1777.74 13806.1L1880.3 13510.4L1418.35 13350.2L1315.79 13645.8Z" fill="white" stroke="#263238" stroke-miterlimit="10"/>
<path d="M1052.46 13719.5L1938.89 14027L2015.87 13805L1129.44 13497.6L1052.46 13719.5Z" fill="white" stroke="#263238" stroke-miterlimit="10"/>
<path d="M1654.04 13390.1L2025.24 12318.7" stroke="#263238" stroke-miterlimit="10"/>
<path d="M22292.8 26705.3C24142.4 26705.3 25641.9 26367.2 25641.9 25950.1C25641.9 25533 24142.4 25194.9 22292.8 25194.9C20443.1 25194.9 18943.6 25533 18943.6 25950.1C18943.6 26367.2 20443.1 26705.3 22292.8 26705.3Z" fill="#263238" stroke="#263238" stroke-linecap="round" stroke-linejoin="round"/>
<path d="M19710.4 8880.01C19710.4 8880.01 19257.2 9157.13 19262.4 9278.73C19267.5 9400.33 19093.4 11617.9 19073.6 11895.1C19053.7 12172.2 18790 12744.3 18769.6 13004.2C18749.1 13264 18814.4 13524.5 18890.5 13644.2C18966.7 13763.9 19246.4 14146.6 19246.4 14146.6L19998.4 12985C20016.8 12731.3 20020.6 12476.8 20009.9 12222.7C19998.4 11669.1 19710.4 8880.01 19710.4 8880.01Z" fill="white" stroke="#263238" stroke-linecap="round" stroke-linejoin="round"/>
<path d="M22603.8 3384.97C22603.8 3384.97 21803.8 3333.77 21348.1 3888.65C20892.4 4443.53 20990.4 5292.17 20987.2 5552.65C20984 5813.13 20210.2 6576.65 20296 6887.69C20381.7 7198.73 20609.6 7233.93 20536.6 7493.77C20463.6 7753.61 19987.5 7909.77 20056.6 8239.37C20125.7 8568.97 20376.6 9036.17 20376.6 9036.17L24984.6 9067.53C24984.6 9067.53 25149.1 8582.41 24973.7 8218.25C24798.4 7854.09 24549.4 7733.77 24589.7 7560.33C24630 7386.89 24852.8 6970.89 24767 6659.21C24681.2 6347.53 24383 6261.13 24351.6 5706.25C24320.3 5151.37 24238.4 4234.25 23798 3786.25C23357.7 3338.25 22603.8 3384.97 22603.8 3384.97Z" fill="#263238" stroke="#263238" stroke-linecap="round" stroke-linejoin="round"/>
<path d="M21186.8 24768C21045.3 25040.7 20873.6 25296.6 20674.8 25530.9C20380.4 25860.5 20095 26033.9 20104.6 26207.4C20114.2 26380.8 20756.8 26414.7 21096.6 26293.1C21436.4 26171.5 21683.5 25929 21752 25909.1C21820.4 25889.3 22011.8 25909.1 22016.3 25665.9C22020.8 25422.7 21983.6 24730.3 21983.6 24730.3L21186.8 24768Z" fill="white" stroke="#263238" stroke-linecap="round" stroke-linejoin="round"/>
<path d="M21095.3 26293.1C21435.8 26171.5 21682.2 25929 21750.7 25909.1C21819.2 25889.3 22010.5 25909.1 22015 25665.9C22015 25537.9 22008 25281.9 21999 25072.7C21948.6 25167.1 21874.1 25246.5 21783 25302.7C21692 25358.9 21587.6 25390 21480.6 25392.7C21480.6 25392.7 21474.2 25271.1 21288.6 25063.7C21168.9 24928 21048 25034.9 20977.6 25127.7L20920.6 25213.5L20916.1 25221.8C20842.2 25330.7 20761.4 25434.9 20674.2 25533.5C20379.8 25863.1 20094.4 26036.5 20104 26209.9C20113.6 26383.4 20755.5 26414.7 21095.3 26293.1Z" fill="white" stroke="#263238" stroke-linecap="round" stroke-linejoin="round"/>
<path d="M23558 24766.7C23730 25040.4 23929.4 25295.8 24153.2 25529C24482.8 25857.9 24786.8 26030.7 24793.2 26204.2C24799.6 26377.6 24163.5 26412.2 23810.2 26291.2C23456.9 26170.3 23184.3 25927.7 23114.5 25910.4C23044.8 25893.1 22854 25910.4 22824 25668.5C22793.9 25426.6 22756.1 24732.8 22756.1 24732.8L23558 24766.7Z" fill="white" stroke="#263238" stroke-linecap="round" stroke-linejoin="round"/>
<path d="M23812.8 26291.2C23460.1 26170.3 23186.8 25927.7 23117.1 25910.4C23047.3 25893.1 22856.6 25910.4 22826.5 25668.5C22810.5 25540.5 22792.6 25284.5 22779.2 25074.6C22838.3 25168.4 22919.7 25246.3 23015.9 25301.4C23112.2 25356.6 23220.6 25387.2 23331.5 25390.7C23331.5 25390.7 23325.1 25269.1 23487 25061.1C23592.6 24926.1 23725.1 25032.3 23807 25125.1C23828.1 25153.3 23849.9 25181.5 23871 25210.9L23876.8 25219.2C23962.8 25328 24054.6 25432.1 24152 25530.9C24481.6 25859.9 24785.6 26032.7 24792 26206.1C24798.4 26379.5 24166 26412.2 23812.8 26291.2Z" fill="white" stroke="#263238" stroke-linecap="round" stroke-linejoin="round"/>
<path d="M19794.8 15620.5C19794.8 15620.5 19901.7 19224.3 20043.8 19934.7C20185.9 20645.1 20820.1 24716.8 20820.1 24716.8C21014 24798.8 21222.7 24839.8 21433.2 24837.1H22126.4L22190.4 21804.8L22214 17403.5L22561.6 24853.8C22561.6 24853.8 23516.4 24887.7 23619.5 24870.4C23722.5 24853.1 23808.3 24835.9 23808.3 24835.9L24422 20122.3L24773.4 16986.3L24792.6 15738.9C24792.6 15738.9 21858.8 15637.1 21006.4 15568C20153.9 15498.9 19803.2 15481.6 19803.2 15481.6L19794.8 15620.5Z" fill="#132346" stroke="#263238" stroke-linecap="round" stroke-linejoin="round"/>
<path d="M23756.4 21983.4C23748.8 22043.5 23741.1 22099.2 23732.1 22150.4" stroke="#263238" stroke-linecap="round" stroke-linejoin="round"/>
<path d="M23835.2 17644.8C23835.2 17644.8 23894.7 20212.5 23790.4 21606.4" stroke="#263238" stroke-linecap="round" stroke-linejoin="round"/>
<path d="M20689.6 17438.7C20689.6 17438.7 20763.2 19137.3 20836.1 19518.1" stroke="#263238" stroke-linecap="round" stroke-linejoin="round"/>
<path d="M23424.3 16356.5V17653.1C23590.4 17697.9 23760.3 17727.2 23931.8 17740.8C24194.8 17758.1 24685.7 17740.8 24685.7 17740.8L24720.9 17249.9L23424.3 16356.5Z" fill="#263238" stroke="#263238" stroke-linecap="round" stroke-linejoin="round"/>
<path d="M19849.2 17354.9C19849.2 17354.9 20515.5 17565.5 20795.8 17582.7C21076.1 17600 21338.5 17635.2 21338.5 17635.2L21304 17285.1L19814 17145L19849.2 17354.9Z" fill="#263238" stroke="#263238" stroke-linecap="round" stroke-linejoin="round"/>
<path d="M21871.6 7509.77L21348.8 8099.21L19898.5 9157.13L20207.6 15569.3C20207.6 15569.3 21363.5 15880.3 22355.5 15966.7C23347.5 16053.1 24623 15825.9 24623 15825.9L24435.5 9105.93C24435.5 9105.93 23871 8273.93 23581.7 8049.29C23292.4 7824.65 23160 7616.65 22776.6 7582.09C22393.2 7547.53 21871.6 7509.77 21871.6 7509.77Z" fill="#132346" stroke="#263238" stroke-linecap="round" stroke-linejoin="round"/>
<path d="M21264.9 7825.29L19710.4 8883.21L19954.2 12781.5L19871.6 13173.1L19218.2 13925.8L19496.6 15248L19372.4 17113.6C19372.4 17113.6 19990 17321.6 20408.6 17372.8C20720.2 17406.2 21033.4 17423.5 21346.8 17424.7L21400.6 14877.5C21400.6 14877.5 21607.3 10649 21631.6 10461.5C21656 10273.9 21871.6 7517.45 21871.6 7517.45L21264.9 7825.29Z" fill="white" stroke="#263238" stroke-linecap="round" stroke-linejoin="round"/>
<path d="M21289.9 7984.65L20537.2 9872.01L21349.4 10209.3L20582.7 10348.8L21261.7 13009.3" stroke="#263238" stroke-linecap="round" stroke-linejoin="round"/>
<path d="M21741.1 7007.38C21741.1 7007.38 22011.2 8808.97 22223.6 9224.97C22436.1 9640.97 22496.3 9779.21 22496.3 9779.21C22496.3 9779.21 22958.4 8375.05 23051.2 8167.05C23144 7959.05 23243.2 7214.09 23243.2 7214.09C23243.2 7214.09 22322.2 7509.14 21741.1 7007.38Z" fill="white" stroke="#263238" stroke-linecap="round" stroke-linejoin="round"/>
<path d="M21741.1 7007.38C21741.1 7007.38 21765.4 7171.21 21805.1 7411.21C21940.1 7514.25 22297.9 7768.98 22562.2 7782.42C22763.8 7792.66 23019.8 7662.1 23190 7557.78C23220.8 7368.98 23241.9 7214.09 23241.9 7214.09C23241.9 7214.09 22322.2 7509.14 21741.1 7007.38Z" fill="#263238" stroke="#263238" stroke-linecap="round" stroke-linejoin="round"/>
<path d="M21374.4 5761.93C21374.4 5761.93 21190 5499.53 21065.9 5761.93C20941.7 6024.33 21257.9 6412.81 21346.2 6465.93C21597.1 6615.05 21530.5 6337.93 21530.5 6337.93L21374.4 5761.93Z" fill="white" stroke="#263238" stroke-linecap="round" stroke-linejoin="round"/>
<path d="M23663.6 5875.21C23663.6 5875.21 23819.2 5603.85 23971.5 5859.85C24123.8 6115.85 23849.2 6518.41 23767.3 6575.37C23533.1 6737.29 23570.2 6459.53 23570.2 6459.53L23663.6 5875.21Z" fill="white" stroke="#263238" stroke-linecap="round" stroke-linejoin="round"/>
<path d="M21330.8 5530.25C21330.8 5530.25 21999 5374.09 22335.6 5175.05C22541.8 5050.52 22721.7 4886.79 22864.9 4693.13C22864.9 4693.13 23154.2 5239.69 23408.9 5461.13C23663.6 5682.57 23716.8 5695.37 23716.8 5695.37C23716.8 5695.37 23594.5 6652.17 23456.3 6984.97C23318 7317.77 22866.8 7641.61 22445.7 7548.17C22206.4 7495.69 21791.6 7322.89 21671.3 7031.69C21551 6740.49 21330.8 5530.25 21330.8 5530.25Z" fill="white" stroke="#263238" stroke-linecap="round" stroke-linejoin="round"/>
<path d="M23035.8 6265.61C22828.4 6270.73 22134 6272.01 21775.6 6055.69C21632 5972.06 21497.5 5873.6 21374.4 5761.93C21387.2 5825.93 21402.5 5905.93 21419.2 5989.13L21497.2 6046.09L21693.1 6785.93L21601.6 6805.77C21620.9 6881.4 21644.1 6955.96 21671.3 7029.13C21791.6 7320.33 22206.4 7493.13 22445.7 7545.61C22866.2 7638.41 23316.1 7316.49 23455.6 6984.33C23422.7 6919.8 23413 6845.9 23428.1 6775.05C23468.4 6565.77 23518.4 6199.05 23518.4 6199.05L23661.1 6071.05C23668.8 6024.33 23675.2 5979.53 23681.6 5938.57C23508.8 6058.25 23184.9 6261.77 23035.8 6265.61Z" fill="#132346" stroke="#263238" stroke-linecap="round" stroke-linejoin="round"/>
<path d="M22273.6 5956.5C22273.6 5956.5 22050.2 5685.13 21757.1 5710.09" stroke="#263238" stroke-linecap="round" stroke-linejoin="round"/>
<path d="M22848.9 6010.25C22920.2 5935.32 23008.7 5878.99 23106.8 5846.19C23204.9 5813.39 23309.5 5805.12 23411.5 5822.09" stroke="#263238" stroke-linecap="round" stroke-linejoin="round"/>
<path d="M21628.4 5574.41C21628.4 5574.41 21948.4 5446.41 22232 5506.57" stroke="#263238" stroke-linecap="round" stroke-linejoin="round"/>
<path d="M22875.2 5576.33C22959.5 5533.26 23055 5517.15 23148.7 5530.2C23242.5 5543.26 23330 5584.83 23399.3 5649.29" stroke="#263238" stroke-linecap="round" stroke-linejoin="round"/>
<path d="M22058.5 5867.53C22060 5877.37 22059.5 5887.39 22057 5897.03C22054.6 5906.67 22050.3 5915.74 22044.3 5923.7C22038.4 5931.67 22030.9 5938.39 22022.4 5943.46C22013.8 5948.54 22004.4 5951.88 21994.5 5953.29C21974.5 5951.04 21956.1 5941.25 21943 5925.92C21929.9 5910.59 21923.2 5890.86 21924.1 5870.73C21922.6 5860.89 21923 5850.83 21925.4 5841.16C21927.8 5831.48 21932.1 5822.39 21938.1 5814.4C21944.1 5806.41 21951.5 5799.7 21960.1 5794.64C21968.7 5789.59 21978.2 5786.3 21988.1 5784.97C22008.1 5787.37 22026.4 5797.2 22039.5 5812.49C22052.5 5827.79 22059.3 5847.44 22058.5 5867.53Z" fill="#263238"/>
<path d="M23217.6 5950.73C23219.3 5960.6 23219 5970.72 23216.6 5980.46C23214.3 5990.21 23210 5999.38 23204 6007.41C23198 6015.43 23190.5 6022.16 23181.8 6027.16C23173.1 6032.16 23163.5 6035.34 23153.6 6036.49C23133.6 6034.39 23115.2 6024.74 23102.1 6009.51C23089 5994.28 23082.2 5974.63 23083.2 5954.57C23081.4 5944.7 23081.7 5934.59 23084.1 5924.84C23086.4 5915.1 23090.7 5905.93 23096.7 5897.9C23102.7 5889.87 23110.2 5883.15 23118.9 5878.15C23127.6 5873.15 23137.2 5869.97 23147.2 5868.81C23167.1 5870.91 23185.5 5880.57 23198.6 5895.79C23211.7 5911.02 23218.5 5930.68 23217.6 5950.73Z" fill="#263238"/>
<path d="M24941.1 8512.65C24941.1 8512.65 25314.2 8685.45 25453.1 8960.65C25592 9235.85 26702.4 12217.6 26697.2 12442.9C26692.1 12668.2 26324.8 12928 25980.4 12963.2C25636.1 12998.4 25134.4 12374.4 25059.5 12270.7C24984.6 12167.1 24971.2 10953.6 24971.2 10953.6L24941.1 8512.65Z" fill="white" stroke="#263238" stroke-linecap="round" stroke-linejoin="round"/>
<path d="M23182.4 7716.49L23364.1 13677.5L23428.1 17437.5C23776.6 17523.1 24133.6 17569.3 24492.4 17575.1C24791.7 17581.3 25089.3 17528.2 25368 17418.9C25368 17418.9 25259.2 15079.7 25240 14698.3C25220.8 14316.8 25094 13589.1 25094 13589.1L24943 8512.65C24943 8512.65 23536.9 7854.73 23182.4 7716.49Z" fill="white" stroke="#263238" stroke-linecap="round" stroke-linejoin="round"/>
<path d="M23581.7 8045.45L24226.2 10147.9L23638.7 10307.2L24210.2 10584.3L23497.2 12849.3" fill="white"/>
<path d="M23581.7 8045.45L24226.2 10147.9L23638.7 10307.2L24210.2 10584.3L23497.2 12849.3" stroke="#263238" stroke-linecap="round" stroke-linejoin="round"/>
<path d="M24031 9968.65L23231.6 13798.4C23231.6 13798.4 23778.2 13971.2 24177.6 13990.4C24576.9 14009.6 25408.9 14007.1 25408.9 14007.1L26240.9 10437.1C26240.9 10437.1 24603.2 10280.3 24031 9968.65Z" fill="#263238" stroke="#263238" stroke-linecap="round" stroke-linejoin="round"/>
<path d="M24309.4 13537.9L24335.6 12341.1L24969.9 12474.9C24969.9 12474.9 24550.7 13398.4 24309.4 13537.9Z" fill="white" stroke="#263238" stroke-linecap="round" stroke-linejoin="round"/>
<path d="M24795.2 11908.5C24795.2 11908.5 24626.2 11666.6 24571.8 11614.1C24517.4 11561.6 24248.6 11406.7 24196.8 11406.7C24144.9 11406.7 23866.5 11389.5 23812.8 11389.5C23759 11389.5 23698.2 11511.1 23753.2 11562.9C23808.3 11614.7 23999.6 11632 23999.6 11632L24130.8 11824L23538.8 11772.2C23538.8 11772.2 23440.3 11876.5 23462.7 11964.2C23479.4 12023.6 23500.8 12081.6 23526.7 12137.6C23524.4 12264.9 23531.1 12392.1 23546.5 12518.4C23569.6 12622.7 23674.5 12657.3 23818.5 12743.7C23962.5 12830.1 24444.4 12778.3 24444.4 12778.3H24667.2L24795.2 11908.5Z" fill="white" stroke="#263238" stroke-linecap="round" stroke-linejoin="round"/>
<path d="M26238.4 12028.8L24702.4 11822.1C24702.4 11822.1 24582.7 12810.3 24461.7 13139.2C24340.8 13468.2 24309.4 13537.9 24309.4 13537.9C24309.4 13537.9 25919 13502.1 26298.5 13467.5C26678 13433 26891.2 13207.1 26874.5 12895.4C26857.9 12583.7 26667.8 12271.4 26667.8 12271.4" fill="white"/>
<path d="M26238.4 12028.8L24702.4 11822.1C24702.4 11822.1 24582.7 12810.3 24461.7 13139.2C24340.8 13468.2 24309.4 13537.9 24309.4 13537.9C24309.4 13537.9 25919 13502.1 26298.5 13467.5C26678 13433 26891.2 13207.1 26874.5 12895.4C26857.9 12583.7 26667.8 12271.4 26667.8 12271.4" stroke="#263238" stroke-linecap="round" stroke-linejoin="round"/>
<path d="M19833.2 13107.9C19833.2 13107.9 20191.6 13332.5 20281.2 13402.3C20370.8 13472 20378.5 13921.9 20435.5 14008.3C20492.4 14094.7 20425.2 14147.2 20321.6 14147.2C20217.9 14147.2 20061.1 13818.3 20061.1 13818.3L20054.7 13696.7L19322.5 13939.9L19130.5 13610.9C19130.5 13610.9 19348.1 13107.9 19833.2 13107.9Z" fill="white" stroke="#263238" stroke-linecap="round" stroke-linejoin="round"/>
<path d="M14499.5 26705.3C16349.1 26705.3 17848.6 26367.2 17848.6 25950.1C17848.6 25533 16349.1 25194.9 14499.5 25194.9C12649.8 25194.9 11150.4 25533 11150.4 25950.1C11150.4 26367.2 12649.8 26705.3 14499.5 26705.3Z" fill="#263238" stroke="#263238" stroke-linecap="round" stroke-linejoin="round"/>
<path d="M17115.2 8003.85C17115.2 8003.85 17554.2 10207.4 17632.3 10615.1C17710.4 11022.7 17853.7 11991.7 18016.3 12416.7C18178.8 12841.6 18125.7 13385.6 18044.4 13538.6C17962.9 13671.5 17869.3 13796.6 17764.8 13912.3L17219.5 13201.3C17219.5 13201.3 16895 9717.13 16882.8 9223.69C16870.7 8730.25 17115.2 8003.85 17115.2 8003.85Z" fill="white" stroke="#263238" stroke-linecap="round" stroke-linejoin="round"/>
<path d="M17404.4 13114.3C17404.4 13114.3 17750 13329.9 17810.8 13421.5C17871.6 13513 17915.2 13629.5 17867.8 13728.7C17820.4 13827.9 17562.5 14127.4 17497.2 14185.6C17432 14243.9 17376.9 14011.5 17369.2 13811.9C17361.6 13612.2 17404.4 13114.3 17404.4 13114.3Z" fill="white" stroke="#263238" stroke-linecap="round" stroke-linejoin="round"/>
<path d="M15545.9 25197.5C15545.9 25197.5 16629.4 25724.2 16697.9 25826.6C16766.4 25929 16519.3 26065.3 15873.6 26065.3C15227.8 26065.3 15208.6 25980.2 14952 25912.3C14695.3 25844.5 14184 25895.1 14114.8 25742.1C14045.7 25589.1 14166 25062.4 14166 25062.4L15545.9 25197.5Z" fill="white" stroke="#263238" stroke-linecap="round" stroke-linejoin="round"/>
<path d="M14107.2 25469.5C14107.2 25469.5 15003.2 26013.4 14924.4 26200.3C14845.7 26387.2 14198 26387.2 13856.9 26336C13515.8 26284.8 12790.7 25824 12752.3 25656.3C12713.9 25488.6 12809.9 25231.4 13335.3 25180.8C13860.8 25130.3 14107.2 25469.5 14107.2 25469.5Z" fill="white" stroke="#263238" stroke-linecap="round" stroke-linejoin="round"/>
<path d="M16827.2 16580.5C16827.2 16580.5 16315.2 20523.5 16226.2 21101.5C16137.2 21679.4 15855 22597.1 15702.7 23294.1C15616.4 23704 15552.3 24118.2 15510.7 24535.1C15495.1 24653.6 15497.9 24773.8 15519 24891.5C15540.8 25061.8 15544 25197.5 15544 25197.5C15316.1 25254.6 15084.1 25294.4 14850.2 25316.5C14561.6 25333.8 14170.5 25333.8 14170.5 25333.8L14042.5 24229.1C14042.5 24229.1 14137.9 22597.1 14194.2 22121.6C14250.5 21646.1 14310.7 17906.6 14308.1 17804.2C14305.6 17701.8 14283.2 16801.3 14283.2 16801.3L16027.2 16614.4C16027.2 16614.4 16265.2 15934.7 16623 15968.7C16980.8 16002.6 16827.2 16580.5 16827.2 16580.5Z" fill="white" stroke="#263238" stroke-linecap="round" stroke-linejoin="round"/>
<path d="M16625.6 15968.7C16267.8 15934.7 16029.7 16614.4 16029.7 16614.4L14283.8 16801.3C14283.8 16801.3 14289.6 17040.7 14295.3 17286.4C14481.6 17303.1 14653.7 17312.7 14800.9 17312.7C15360.3 17311.7 15919.2 17280.3 16475.2 17218.6L16550 16435.2L16667.2 17233.3L16747.8 17207.1C16797.7 16826.9 16829.7 16579.2 16829.7 16579.2C16829.7 16579.2 16983.3 16002.6 16625.6 15968.7Z" fill="#263238" stroke="#263238" stroke-linecap="round" stroke-linejoin="round"/>
<path d="M12462.4 16699.5C12462.4 16699.5 12462.4 16723.9 12466.2 16768C12489.9 17232.7 12630.7 19925.1 12673.6 20421.8C12721.6 20965.8 12481.6 21560.3 12493.7 22053.1C12505.9 22545.9 12621.7 25214.7 12621.7 25214.7L12749.7 25656.3C12749.7 25656.3 13050.5 25452.8 13339.2 25452.8C13627.8 25452.8 14107.2 25469.5 14107.2 25469.5C14107.2 25469.5 14132.1 25112.3 14129.6 24993.9C14127 24875.5 14116.1 24449.9 14116.1 24449.9C14116.1 24449.9 14604.4 22223.4 14633.9 22036.5C14663.3 21849.6 15042.2 18620.2 15039.6 18516.5C15037.1 18412.8 15119.6 16969.6 15119.6 16969.6L12462.4 16699.5Z" fill="white" stroke="#263238" stroke-linecap="round" stroke-linejoin="round"/>
<path d="M15101.7 17309.5C15112.6 17112.3 15120.3 16971.5 15120.3 16971.5L12462.4 16699.5C12462.4 16699.5 12462.4 16723.9 12466.2 16768C12466.2 16824.3 12473.2 16913.3 12479.6 17024C13101.1 17135.4 14179.5 17310.7 14800.9 17310.7C14903.3 17312.7 15003.2 17311.4 15101.7 17309.5Z" fill="#263238" stroke="#263238" stroke-linecap="round" stroke-linejoin="round"/>
<path d="M14420.8 6263.69C14420.8 6263.69 14139.8 6311.05 14032.9 6436.49C13925.8 6558.51 13829.4 6689.56 13744.9 6828.17C13730.2 6875.53 12077.7 7878.41 12077.7 7878.41L12196.8 12660.5C12196.8 12660.5 12246 13397.1 12158.4 13648C12010.3 14141.3 11938.4 14654.3 11945.2 15169.3C11960.6 15780.5 12000.3 16769.3 12000.3 16769.3C12000.3 16769.3 13891.5 17145.6 14800.9 17145.6C15360.3 17144.3 15919.2 17112.4 16475.2 17050.3L16550 16266.3L16664 17066.3L17052.4 16938.3L17372.4 14570.3C17372.4 14570.3 17595.2 14068.5 17592.6 13958.4C17590 13848.3 17648.9 13707.5 17584.3 13613.5C17519.6 13519.4 17404.4 13331.2 17404.4 13331.2C17404.4 13331.2 17115.2 8145.29 17115.2 8003.85C17115.2 7862.41 16259.5 7032.33 16196.1 7000.97C16132.8 6969.61 15742.4 6389.13 15236.1 6232.97C14729.9 6076.81 14420.8 6263.69 14420.8 6263.69Z" fill="white" stroke="#263238" stroke-linecap="round" stroke-linejoin="round"/>
<path d="M13905.6 6984.97L13716.1 8707.21L14494.4 9068.81L14299.8 9653.13L16246 13073.3" stroke="#263238" stroke-linecap="round" stroke-linejoin="round"/>
<path d="M16079.6 7178.25L16663.3 8540.81L16413.1 8874.25L16830.4 9457.93L16663.3 13212.2" stroke="#263238" stroke-linecap="round" stroke-linejoin="round"/>
<path d="M14348.4 6499.21C14362.6 6835.2 14423.6 7167.57 14529.6 7486.73C14697.9 7957.13 15813.4 11202.6 15813.4 11202.6L16534.7 13742.1C16534.7 13742.1 16439.3 11155.2 16436.8 11045.8C16434.2 10936.3 15890.2 7345.29 15890.2 7345.29C15890.2 7345.29 15797.4 6765.45 15650.8 6545.93C15504.3 6326.41 14521.9 5918.73 14348.4 6499.21Z" fill="#132346" stroke="#263238" stroke-linecap="round" stroke-linejoin="round"/>
<path d="M14279.3 6248.33C14279.3 6248.33 13825.6 6295.05 13905.6 6984.97C13985.6 7674.89 14091.2 8145.29 14091.2 8145.29" stroke="#263238" stroke-width="2" stroke-linecap="round" stroke-linejoin="round"/>
<path d="M14035.5 9054.73C14035.5 9054.73 14227.5 9854.09 14358.7 10073.6C14489.9 10293.1 14886.7 10512.7 15168.9 10512.7" stroke="#263238" stroke-linecap="round" stroke-linejoin="round"/>
<path d="M14642.2 8866.57C14642.2 8866.57 14853.4 9791.37 14888.6 9964.17C14923.8 10137 14807.3 10465.3 14611.5 10796.2" stroke="#263238" stroke-linecap="round" stroke-linejoin="round"/>
<path d="M14555.2 10905.6C14535 10894.5 14520.1 10875.9 14513.6 10853.9C14507.1 10831.8 14509.6 10808.1 14520.6 10787.9L14543 10746.9C14548.5 10737.1 14555.9 10728.5 14564.8 10721.6C14573.7 10714.7 14583.8 10709.7 14594.7 10706.8C14605.5 10703.8 14616.8 10703.1 14628 10704.6C14639.1 10706.1 14649.8 10709.8 14659.5 10715.5C14679.6 10726.6 14694.6 10745.2 14701.2 10767.2C14707.8 10789.2 14705.4 10813 14694.7 10833.3L14672.3 10873.6C14666.8 10883.5 14659.3 10892.1 14650.4 10899.1C14641.5 10906.1 14631.3 10911.2 14620.4 10914.2C14609.5 10917.1 14598.1 10917.9 14586.9 10916.5C14575.7 10915 14564.9 10911.3 14555.2 10905.6Z" fill="#263238"/>
<path d="M15273.9 10529.9C15273.9 10541.2 15271.6 10552.4 15267.2 10562.8C15262.8 10573.2 15256.3 10582.5 15248.2 10590.4C15240.1 10598.2 15230.5 10604.3 15219.9 10608.3C15209.4 10612.4 15198.1 10614.2 15186.8 10613.8H15140.1C15117.1 10613.3 15095.2 10603.7 15079.1 10587.2C15063.1 10570.7 15054.2 10548.5 15054.4 10525.5C15054.3 10514.2 15056.5 10503 15060.8 10492.7C15065.1 10482.3 15071.5 10472.9 15079.6 10465C15087.7 10457.2 15097.3 10451.1 15107.8 10447.1C15118.3 10443 15129.5 10441.2 15140.8 10441.6H15187.5C15210.5 10442.3 15232.4 10451.9 15248.5 10468.3C15264.6 10484.8 15273.7 10506.9 15273.9 10529.9Z" fill="#263238"/>
<path d="M14036.8 9117.45L13929.2 8435.85C13917.2 8365.58 13932.5 8293.37 13971.8 8233.92C14011.2 8174.47 14071.7 8132.25 14141.1 8115.85C14215.8 8098.85 14294.3 8111.49 14359.9 8151.11C14425.6 8190.73 14473.3 8254.26 14493.1 8328.33L14676.8 9006.73" stroke="#263238" stroke-width="2" stroke-linecap="round" stroke-linejoin="round"/>
<path d="M16566.6 9578.11C16720.7 9562.68 16831.1 9406.19 16813.3 9228.58C16795.5 9050.97 16656.2 8919.49 16502.2 8934.92C16348.1 8950.35 16237.7 9106.84 16255.5 9284.45C16273.3 9462.06 16412.6 9593.54 16566.6 9578.11Z" fill="white" stroke="#263238" stroke-linecap="round" stroke-linejoin="round"/>
<path d="M15779.5 6535.7C15779.5 6535.7 16395.8 7402.9 16592.3 9170.58" stroke="#263238" stroke-width="2" stroke-linecap="round" stroke-linejoin="round"/>
<path d="M16608.6 9375.22C16692.8 9367.4 16753.6 9281.46 16744.4 9183.27C16735.3 9085.08 16659.7 9011.82 16575.6 9019.63C16491.5 9027.45 16430.7 9113.39 16439.8 9211.58C16448.9 9309.78 16524.5 9383.04 16608.6 9375.22Z" fill="white" stroke="#263238" stroke-linecap="round" stroke-linejoin="round"/>
<path d="M17509.4 13249.3C17471.6 13366.4 17440.6 13485.7 17416.6 13606.4C17416.6 13657.6 17404.4 13810.6 17284.8 13776C17165.1 13741.5 17200.9 13130.3 17216.3 13062.4C17231.6 12994.6 17522.8 13214.1 17522.8 13214.1" fill="white"/>
<path d="M17509.4 13249.3C17471.6 13366.4 17440.6 13485.7 17416.6 13606.4C17416.6 13657.6 17404.4 13810.6 17284.8 13776C17165.1 13741.5 17200.9 13130.3 17216.3 13062.4C17231.6 12994.6 17522.8 13214.1 17522.8 13214.1" stroke="#263238" stroke-linecap="round" stroke-linejoin="round"/>
<path d="M13624.6 12707.9C13731.1 12766.5 13850 12798.7 13971.5 12801.9C14159.6 12801.9 14503.3 12737.9 14629.4 12770.6C14755.5 12803.2 15077.4 13209 15077.4 13209C15077.4 13209 15173.4 13303.1 15128 13350.4C15082.5 13397.8 14989.7 13478.4 14925.7 13428.5C14861.7 13378.6 14541.7 13114.9 14541.7 13114.9L13734.7 13444.5L13403.2 13271.7L13624.6 12707.9Z" fill="white" stroke="#263238" stroke-linecap="round" stroke-linejoin="round"/>
<path d="M12388.8 7768.97C12388.8 7768.97 11856.9 7832.97 11766.7 7972.49C11676.4 8112.01 10219.2 11312 10222.4 11453.5C10225.6 11594.9 13136.3 13885.5 13136.3 13885.5L13764.8 12689.3L12192.3 11231.4L12874.5 9648.01" fill="white"/>
<path d="M12388.8 7768.97C12388.8 7768.97 11856.9 7832.97 11766.7 7972.49C11676.4 8112.01 10219.2 11312 10222.4 11453.5C10225.6 11594.9 13136.3 13885.5 13136.3 13885.5L13764.8 12689.3L12192.3 11231.4L12874.5 9648.01" stroke="#263238" stroke-linecap="round" stroke-linejoin="round"/>
<path d="M13369.9 14463.4L14907.2 14494.7L14899.5 13538.6" stroke="#263238" stroke-linecap="round" stroke-linejoin="round"/>
<path d="M13736.6 13444.5L13330.2 13596.2" stroke="#263238" stroke-linecap="round" stroke-linejoin="round"/>
<path d="M14200 5573.77C14200 5573.77 14374.7 6938.25 14489.9 7141.77C14605.1 7345.29 15424.3 8160.65 15424.3 8160.65C15424.3 8160.65 15680.3 7220.49 15709.1 7000.97C15737.9 6781.45 15760.3 5903.37 15760.3 5903.37L14196.8 5464.33L14200 5573.77Z" fill="white" stroke="#263238" stroke-linecap="round" stroke-linejoin="round"/>
<path d="M14200 5573.77C14200 5573.77 14220.4 5733.77 14251.8 5952.01C14374.3 6066.12 14514.4 6159.89 14666.5 6229.77C14868.1 6318.73 15405.7 6368.65 15745.6 6328.97C15754.5 6099.21 15760.3 5903.37 15760.3 5903.37L14196.8 5464.33L14200 5573.77Z" fill="#263238" stroke="#263238" stroke-linecap="round" stroke-linejoin="round"/>
<path d="M13746.8 4382.73C13746.8 4382.73 13537.6 4163.21 13433.9 4413.45C13330.2 4663.69 13561.9 5040.65 13685.4 5056.65C13758.7 5066.21 13833.2 5060.77 13904.3 5040.65C13904.3 5040.65 13992 5401.61 14072.6 5511.05C14231.3 5711.74 14434.7 5872.59 14666.5 5980.81C14952 6108.81 15907.5 6154.25 16028.4 5980.81C16149.4 5807.37 16142.4 4883.21 16140.4 4805.13C16138.5 4727.05 16125.1 3609.61 16125.1 3609.61C16125.1 3609.61 16210.8 3221.77 16094.4 2954.89C15977.9 2688.01 14808.6 2314.89 14514.8 2469.13C14221.1 2623.37 13882.5 2892.17 13859.5 3237.13C13836.4 3582.09 13850.5 4146.57 13850.5 4146.57L13746.8 4382.73Z" fill="white" stroke="#263238" stroke-linecap="round" stroke-linejoin="round"/>
<path d="M15474.8 3896.33C15474.8 3896.33 15670 4792.33 15625.2 4899.85C15580.4 5007.37 15440.3 5009.29 15264.9 4915.21C15089.6 4821.13 15181.1 4695.69 15181.1 4695.69" stroke="#263238" stroke-linecap="round" stroke-linejoin="round"/>
<path d="M14795.2 4931.21C14795.2 4931.21 14879.6 5166.09 15036.4 5182.09C15193.2 5198.09 15586.8 5228.81 15586.8 5228.81" stroke="#263238" stroke-linecap="round" stroke-linejoin="round"/>
<path d="M14235.2 3927.69L14260.1 4304.01C14260.1 4304.01 14403.5 4382.73 14732.4 4382.73C15061.4 4382.73 15169.6 4304.01 15169.6 4304.01L15160.6 3927.69C15160.6 3927.69 14683.2 3645.45 14235.2 3927.69Z" stroke="#263238" stroke-linecap="round" stroke-linejoin="round"/>
<path d="M15476.1 3927.69L15595.2 4320.02C15595.2 4320.02 15643.8 4384.02 15973.4 4384.02C16303 4384.02 16411.2 4305.29 16411.2 4305.29L16401.6 3928.98C16401.6 3928.98 15923.5 3645.45 15476.1 3927.69Z" stroke="#263238" stroke-linecap="round" stroke-linejoin="round"/>
<path d="M15162.5 3927.69H15476.1" stroke="#263238" stroke-linecap="round" stroke-linejoin="round"/>
<path d="M14237.1 3927.69L13618.8 4288.65" stroke="#263238" stroke-linecap="round" stroke-linejoin="round"/>
<path d="M14389.4 3739.53C14389.4 3739.53 14557.1 3551.37 14937.2 3708.17" stroke="#263238" stroke-linecap="round" stroke-linejoin="round"/>
<path d="M15533.7 3739.53C15590.2 3694.24 15658.3 3665.82 15730.2 3657.55C15802.1 3649.29 15874.9 3661.51 15940.1 3692.81" stroke="#263238" stroke-linecap="round" stroke-linejoin="round"/>
<path d="M14790 4100.49C14790 4169.61 14765.1 4228.49 14730.5 4228.49C14696 4228.49 14666.5 4172.17 14666.5 4100.49C14666.5 4028.81 14691.5 3972.49 14726.7 3972.49C14761.9 3972.49 14788.8 4030.73 14790 4100.49Z" fill="#263238"/>
<path d="M15793.6 4084.49C15793.6 4153.61 15768.6 4212.49 15734 4212.49C15699.5 4212.49 15670 4156.17 15670 4084.49C15670 4012.81 15695 3956.49 15729.6 3956.49C15764.1 3956.49 15791.6 4015.37 15793.6 4084.49Z" fill="#263238"/>
<path d="M14719.6 2634.25C14719.6 2634.25 14870.7 2967.69 14683.2 3089.29C14625.3 3122.78 14559.6 3140.41 14492.8 3140.41C14425.9 3140.41 14360.2 3122.78 14302.4 3089.29C14352.2 3158.16 14380.1 3240.5 14382.2 3325.49C14384.4 3410.48 14360.8 3494.13 14314.5 3565.45C14222.6 3718.62 14115.4 3862.07 13994.5 3993.61C13994.5 3993.61 14028.4 4398.73 13958 4446.09C13887.6 4493.45 13695.6 4422.41 13692.4 4303.37C13689.2 4184.33 13612.4 3946.25 13609.2 3827.21C13606 3708.17 13551 3398.41 13551 3398.41C13551 3398.41 13069.7 3184.01 13325.1 2922.25C13580.4 2660.49 14122.5 2446.09 14122.5 2446.09C14122.5 2446.09 14134.7 1969.93 14464.3 1827.21C14793.9 1684.49 15503 1470.09 15508.8 1708.17C15517.8 1830.7 15495.8 1953.52 15444.8 2065.29C15444.8 2065.29 16039.3 2041.61 16454 2449.29C16868.8 2856.97 16854.7 3235.21 16640.3 3235.21C16425.9 3235.21 16356.1 3282.57 16356.1 3282.57C16356.1 3282.57 16766.4 3520.65 16555.2 3639.69C16344 3758.73 16126.4 3616.01 16126.4 3616.01C16126.4 3616.01 16217.2 3449.61 15949.7 3232.01C15682.2 3014.41 14719.6 2634.25 14719.6 2634.25Z" fill="#263238" stroke="#263238" stroke-linecap="round" stroke-linejoin="round"/>
<path d="M6598.68 26705.3C8448.35 26705.3 9947.8 26367.2 9947.8 25950.1C9947.8 25533 8448.35 25194.9 6598.68 25194.9C4749.01 25194.9 3249.56 25533 3249.56 25950.1C3249.56 26367.2 4749.01 26705.3 6598.68 26705.3Z" fill="#263238" stroke="#263238" stroke-linecap="round" stroke-linejoin="round"/>
<path d="M8804.12 10329.6V10941.5L9693.72 11349.1C9693.72 11349.1 9786.52 10941.5 9712.28 10218.3L8804.12 10329.6Z" fill="#999999" stroke="#263238" stroke-linecap="round" stroke-linejoin="round"/>
<path d="M4388.76 25011.9C4185.14 25186.6 3992.76 25374.1 3812.76 25573.1C3556.76 25861.8 3506.84 26149.1 3744.92 26286.7C3983 26424.3 4356.76 26388.5 4764.44 26133.8C5172.12 25879.1 5155.48 25776.7 5393.56 25692.2C5631.64 25607.7 5784.6 25436.2 5784.6 25164.8C5784.6 24893.5 4917.4 24858.9 4730.52 24844.8C4543.64 24830.7 4388.76 25011.9 4388.76 25011.9Z" fill="white" stroke="#263238" stroke-linecap="round" stroke-linejoin="round"/>
<path d="M5782.68 25164.8C5782.68 25164.8 5398.68 25335.1 5212.44 25489.9C5026.2 25644.8 4655 26202.3 4221.08 26202.3C4000.11 26202.5 3782.8 26145.8 3590.04 26037.8C3590.32 26089.3 3604.73 26139.7 3631.7 26183.6C3658.67 26227.5 3697.17 26263.2 3743 26286.7C3981.08 26422.4 4354.84 26388.5 4762.52 26133.8C5170.2 25879.1 5153.56 25776.7 5391.64 25692.2C5629.72 25607.7 5782.68 25436.8 5782.68 25164.8Z" stroke="#263238" stroke-linecap="round" stroke-linejoin="round"/>
<path d="M8701.72 25011.9C8905.34 25186.6 9097.72 25374.1 9277.72 25573.1C9533.72 25861.8 9583.64 26149.1 9345.56 26286.7C9107.48 26424.3 8733.72 26388.5 8326.04 26133.8C7918.36 25879.1 7935 25776.7 7696.92 25692.2C7458.84 25607.7 7305.88 25436.2 7305.88 25164.8C7305.88 24893.5 8173.08 24858.9 8359.96 24844.8C8546.84 24830.7 8701.72 25011.9 8701.72 25011.9Z" fill="white" stroke="#263238" stroke-linecap="round" stroke-linejoin="round"/>
<path d="M7307.8 25164.8C7307.8 25164.8 7691.8 25335.1 7878.04 25489.9C8064.28 25644.8 8435.48 26202.3 8869.4 26202.3C9090.37 26202.5 9307.68 26145.8 9500.44 26037.8C9500.16 26089.3 9485.75 26139.7 9458.78 26183.6C9431.81 26227.5 9393.31 26263.2 9347.48 26286.7C9109.4 26422.4 8735.64 26388.5 8327.96 26133.8C7920.28 25879.1 7936.92 25776.7 7698.84 25692.2C7460.76 25607.7 7307.8 25436.8 7307.8 25164.8Z" stroke="#263238" stroke-linecap="round" stroke-linejoin="round"/>
<path d="M3895.96 15358.1C3895.96 15358.1 3997.72 19182.1 4048.92 19743.4C4100.12 20304.7 4251.16 21578.9 4251.16 21649.3C4251.16 21719.7 4335.64 24538.9 4335.64 24538.9L4182.68 24794.9L4233.88 25152L4913.56 25287.7C5253.4 25355.5 5695.64 25457.9 5763.48 25390.1C5831.32 25322.3 5848.6 25185.9 5882.52 24999.1C5916.44 24812.2 5984.28 24471.7 5916.44 24200.3C5848.6 23929 6001.56 21038.7 6018.84 20970.9C6036.12 20903.1 6427.16 18111.4 6427.16 18111.4C6427.16 18111.4 6683.16 20406.4 6868.76 21102.7C7054.36 21799.1 6987.8 22836.5 7055.64 23244.2C7123.48 23651.9 7259.8 25029.1 7277.08 25130.9C7294.36 25232.7 7327.64 25386.9 7327.64 25386.9C7327.64 25386.9 8177.56 25267.9 8330.52 25199.4C8485.6 25142.2 8644.78 25096.9 8806.68 25063.7C8806.68 25063.7 8857.24 24094.7 8789.4 23703.7C8739.97 23428.9 8711.51 23150.8 8704.28 22871.7C8704.28 22752.7 8789.4 18979.9 8789.4 18979.9L8704.28 15325.5C8704.28 15325.5 6409.88 15563.5 5526.04 15393.3C4642.2 15223.1 3913.24 15121.3 3913.24 15121.3L3895.96 15358.1Z" fill="#132346" stroke="#263238" stroke-linecap="round" stroke-linejoin="round"/>
<path d="M5527.32 15392C4643.48 15222.4 3913.24 15121.3 3913.24 15121.3L3895.96 15358.7C3895.96 15358.7 3901.72 15578.3 3911.32 15918.7C4316.44 16032 5139.48 16231.1 5935 16231.1C6775.96 16231.1 8115.48 15975.1 8718.36 15852.8L8705.56 15324.8C8705.56 15324.8 6411.16 15562.3 5527.32 15392Z" fill="#263238" stroke="#263238" stroke-linecap="round" stroke-linejoin="round"/>
<path d="M8479.64 24003.9C8490.52 24121 8497.56 24188.2 8497.56 24188.2" stroke="#263238" stroke-linecap="round" stroke-linejoin="round"/>
<path d="M8219.16 16255.4C8219.16 16255.4 8283.16 19539.9 8283.16 20779.5C8283.16 21637.1 8386.84 22938.9 8450.84 23659.5" stroke="#263238" stroke-linecap="round" stroke-linejoin="round"/>
<path d="M4779.16 16069.8L4934.04 19633.3" stroke="#263238" stroke-linecap="round" stroke-linejoin="round"/>
<path d="M4902.68 19911.7V20500.5" stroke="#263238" stroke-linecap="round" stroke-linejoin="round"/>
<path d="M5708.44 6381.45C5624.76 6381.9 5542.39 6402.28 5468.16 6440.9C5393.92 6479.52 5329.96 6535.27 5281.56 6603.53C5175.72 6743.19 5057.94 6873.39 4929.56 6992.65L3409.56 7808.65L3558.04 13610.9L3613.72 15594.9C3613.72 15594.9 4781.08 15984 5893.4 15984C7005.72 15984 8989.08 15536 8989.08 15536C8989.08 15536 8822.68 7806.09 8878.36 7806.09C8934.04 7806.09 7784.6 6807.69 7265.56 6545.29C6746.52 6282.89 5708.44 6381.45 5708.44 6381.45Z" fill="#132346" stroke="#263238" stroke-linecap="round" stroke-linejoin="round"/>
<path d="M5275.16 7082.89C5275.16 7082.89 5863.96 8167.69 6112.28 8663.69C6360.6 9159.69 6823.96 9873.29 6823.96 9873.29L7599 7797.13" stroke="#263238" stroke-linecap="round" stroke-linejoin="round"/>
<path d="M5710.36 13963.5L5680.28 13097.6L3931.16 12995.9C3931.16 12995.9 3948.44 14270.7 3982.36 14339.9" stroke="#263238" stroke-linecap="round" stroke-linejoin="round"/>
<path d="M5731.48 14576.7L5723.16 14333.5" stroke="#263238" stroke-linecap="round" stroke-linejoin="round"/>
<path d="M7805.08 14440.3L7753.88 13013.1C7753.88 13013.1 8365.72 13063.7 8875.8 12723.9" stroke="#263238" stroke-linecap="round" stroke-linejoin="round"/>
<path d="M5182.36 9612.17C5236.12 9781.77 5399.96 9881.61 5547.8 9834.25C5695.64 9786.89 5770.52 9610.89 5716.12 9441.29C5661.72 9271.69 5498.52 9171.85 5350.68 9219.21C5202.84 9266.57 5127.96 9442.57 5182.36 9612.17Z" stroke="#263238" stroke-linecap="round" stroke-linejoin="round"/>
<path d="M5199.64 6642.57C5199.64 6642.57 5003.16 7397.77 5449.88 9447.69" stroke="#263238" stroke-width="2" stroke-linecap="round" stroke-linejoin="round"/>
<path d="M5587.48 9518.09C5574.31 9544.65 5553.8 9566.86 5528.38 9582.11C5502.96 9597.35 5473.7 9604.98 5444.07 9604.08C5414.44 9603.19 5385.69 9593.82 5361.24 9577.07C5336.78 9560.33 5317.64 9536.92 5306.09 9509.62C5294.54 9482.32 5291.07 9452.29 5296.08 9423.07C5301.1 9393.86 5314.39 9366.7 5334.38 9344.82C5354.37 9322.93 5380.22 9307.24 5408.86 9299.61C5437.5 9291.98 5467.73 9292.73 5495.96 9301.77C5536.62 9318.52 5569.03 9350.63 5586.16 9391.13C5603.3 9431.63 5603.77 9477.25 5587.48 9518.09Z" stroke="#263238" stroke-linecap="round" stroke-linejoin="round"/>
<path d="M8804.12 7697.29C8804.12 7697.29 9081.88 7901.45 9100.44 7975.69C9119 8049.93 10064.3 10311.1 10064.3 10311.1L8692.76 10513.3L8711.32 9178.25" fill="#132346"/>
<path d="M8804.12 7697.29C8804.12 7697.29 9081.88 7901.45 9100.44 7975.69C9119 8049.93 10064.3 10311.1 10064.3 10311.1L8692.76 10513.3L8711.32 9178.25" stroke="#263238" stroke-linecap="round" stroke-linejoin="round"/>
<path d="M3595.16 7734.41C3595.16 7734.41 3279.64 7771.53 3205.4 8012.17C3131.16 8252.81 2594.2 10700.2 2594.2 10700.2L4559 10513.3L4373.4 8677.77" fill="#132346"/>
<path d="M3595.16 7734.41C3595.16 7734.41 3279.64 7771.53 3205.4 8012.17C3131.16 8252.81 2594.2 10700.2 2594.2 10700.2L4559 10513.3L4373.4 8677.77" stroke="#263238" stroke-linecap="round" stroke-linejoin="round"/>
<path d="M7390.36 6527.37C7390.36 6527.37 7877.4 6805.13 7925.4 7496.33C7973.4 8187.53 7925.4 8362.89 7925.4 8362.89" stroke="#263238" stroke-width="2" stroke-linecap="round" stroke-linejoin="round"/>
<path d="M8145.56 9248.01C8145.56 9248.01 8102.04 10065.3 8013.08 10301.5C7924.12 10537.6 7572.12 10817.3 7293.08 10862.1" stroke="#263238" stroke-linecap="round" stroke-linejoin="round"/>
<path d="M7515.16 9159.69C7515.16 9159.69 7476.12 10102.4 7472.28 10277.8C7468.44 10453.1 7645.08 10758.4 7898.52 11050.9" stroke="#263238" stroke-linecap="round" stroke-linejoin="round"/>
<path d="M7971.21 11153.6L7978.66 11147.5C8013.53 11119.3 8018.87 11068.1 7990.6 11033.2L7954.72 10989C7926.45 10954.1 7875.26 10948.8 7840.39 10977L7832.94 10983.1C7798.07 11011.3 7792.73 11062.5 7821 11097.4L7856.88 11141.6C7885.15 11176.5 7936.34 11181.8 7971.21 11153.6Z" fill="#263238"/>
<path d="M7192.88 10892L7194.67 10901.4C7203.02 10945.5 7245.55 10974.5 7289.66 10966.1L7345.62 10955.5C7389.73 10947.2 7418.7 10904.6 7410.35 10860.5L7408.56 10851.1C7400.2 10807 7357.67 10778 7313.57 10786.4L7257.6 10797C7213.5 10805.3 7184.52 10847.9 7192.88 10892Z" fill="#263238"/>
<path d="M8155.16 9310.09L8136.6 8623.37C8134.87 8551.74 8106.5 8483.33 8057.03 8431.5C8007.56 8379.66 7940.55 8348.13 7869.08 8343.05C7793.17 8337.4 7718.1 8362.03 7660.3 8411.56C7602.49 8461.09 7566.65 8531.49 7560.6 8607.37L7503 9303.69" stroke="#263238" stroke-width="2" stroke-linecap="round" stroke-linejoin="round"/>
<path d="M9749.4 10885.8L9307.16 10793L7750.04 10533.8L5566.36 10117.8L5048.6 9889.29C5048.6 9889.29 4559 9249.29 4516.76 9185.29C4474.52 9121.29 3920.92 9344.65 3940.76 9429.77C3960.6 9514.89 4025.88 10365.5 4068.76 10419.2C4111.64 10473 4589.72 10472.3 4589.72 10472.3C4589.72 10472.3 6870.68 11573.1 6965.4 11613.5C8281.88 12168.3 8916.76 12163.2 9141.4 12199.7C9366.04 12236.2 9512.6 12145.3 9641.88 11996.8C9771.16 11848.3 9749.4 10885.8 9749.4 10885.8Z" fill="#999999" stroke="#263238" stroke-linecap="round" stroke-linejoin="round"/>
<path d="M4450.2 9176.33C4450.2 9176.33 4184.6 9187.21 3791 9452.81C3644.44 9552.01 3567.64 9623.05 3567.64 9665.93C3576.03 9716.94 3590.42 9766.78 3610.52 9814.41C3865.71 9691.52 4132.95 9595.44 4407.96 9527.69" fill="#999999"/>
<path d="M4450.2 9176.33C4450.2 9176.33 4184.6 9187.21 3791 9452.81C3644.44 9552.01 3567.64 9623.05 3567.64 9665.93C3576.03 9716.94 3590.42 9766.78 3610.52 9814.41C3865.71 9691.52 4132.95 9595.44 4407.96 9527.69" stroke="#263238" stroke-linecap="round" stroke-linejoin="round"/>
<path d="M4556.44 9857.29C4556.44 9857.29 3833.88 10037.8 3716.76 10059.5C3599.64 10081.3 3578.52 9963.53 3578.52 9921.29C3578.52 9879.05 3610.52 9814.41 3737.88 9751.05C3865.24 9687.69 4505.88 9516.81 4505.88 9516.81" fill="#999999"/>
<path d="M4556.44 9857.29C4556.44 9857.29 3833.88 10037.8 3716.76 10059.5C3599.64 10081.3 3578.52 9963.53 3578.52 9921.29C3578.52 9879.05 3610.52 9814.41 3737.88 9751.05C3865.24 9687.69 4505.88 9516.81 4505.88 9516.81" stroke="#263238" stroke-linecap="round" stroke-linejoin="round"/>
<path d="M4631.32 10186.9C4631.32 10186.9 3791 10272 3727 10218.9C3707.42 10197.6 3692.56 10172.4 3683.41 10144.9C3674.26 10117.4 3671.01 10088.3 3673.88 10059.5L4429.08 9899.53" fill="#999999"/>
<path d="M4631.32 10186.9C4631.32 10186.9 3791 10272 3727 10218.9C3707.42 10197.6 3692.56 10172.4 3683.41 10144.9C3674.26 10117.4 3671.01 10088.3 3673.88 10059.5L4429.08 9899.53" stroke="#263238" stroke-linecap="round" stroke-linejoin="round"/>
<path d="M4397.08 10229.1L3748.76 10261.1C3748.76 10261.1 3780.12 10357.1 3812.76 10367.4C3966.35 10405.3 4122.84 10430.4 4280.6 10442.3C4384.05 10445.7 4487.14 10456.3 4589.08 10474.3" fill="#999999"/>
<path d="M4397.08 10229.1L3748.76 10261.1C3748.76 10261.1 3780.12 10357.1 3812.76 10367.4C3966.35 10405.3 4122.84 10430.4 4280.6 10442.3C4384.05 10445.7 4487.14 10456.3 4589.08 10474.3" stroke="#263238" stroke-linecap="round" stroke-linejoin="round"/>
<path d="M3001.88 10663.1C3001.88 10663.1 3298.2 11943.1 3372.44 12035.2C3446.68 12127.4 4058.52 12035.2 4670.36 11849.6C5282.2 11664 7877.4 10552.3 7877.4 10552.3L8247.96 10625.9C8247.96 10625.9 8099.48 10162.6 7840.28 10144C7581.08 10125.5 4559 10513.3 4559 10513.3L3001.88 10663.1Z" fill="#999999" stroke="#263238" stroke-linecap="round" stroke-linejoin="round"/>
<path d="M5595.16 5565.45C5595.16 5565.45 5595.16 5592.97 5595.16 5639.69C5600.92 5883.53 5624.6 6657.93 5686.68 6844.81C5760.92 7066.89 6761.88 8939.53 6838.68 8791.05C6915.48 8642.57 7376.28 6622.09 7376.28 6622.09V5825.29C7376.28 5825.29 7135 6028.81 6690.2 6028.81C6245.4 6028.81 5595.16 5565.45 5595.16 5565.45Z" fill="#999999" stroke="#263238" stroke-linecap="round" stroke-linejoin="round"/>
<path d="M7079.96 6663.69C7183.75 6600.31 7282.98 6529.74 7376.92 6452.49V5825.29C7376.92 5825.29 7135.64 6028.81 6690.84 6028.81C6246.04 6028.81 5595.16 5565.45 5595.16 5565.45C5595.16 5565.45 5595.16 5592.97 5595.16 5639.69C5595.16 5725.45 5601.56 5877.13 5609.24 6046.09C5626.79 6074.22 5646.48 6100.97 5668.12 6126.09C5796.12 6273.93 6409.24 6645.13 6557.72 6682.25C6706.2 6719.37 6912.92 6755.85 7079.96 6663.69Z" fill="#263238" stroke="#263238" stroke-linecap="round" stroke-linejoin="round"/>
<path d="M7821.72 4490.25C7821.72 4490.25 8118.04 4323.21 8118.04 4638.73C8118.04 4954.25 7840.28 5324.81 7840.28 5324.81L7821.72 4490.25Z" fill="#999999" stroke="#263238" stroke-linecap="round" stroke-linejoin="round"/>
<path d="M5170.84 4508.81C5170.84 4508.81 4762.52 4397.45 4762.52 4768.65C4762.52 5139.85 5133.72 5379.85 5133.72 5379.85H5389.72C5389.72 5379.85 5538.2 5751.05 5668.12 5898.89C5798.04 6046.73 6409.24 6417.93 6557.72 6455.05C6706.2 6492.17 6909.72 6529.29 7076.76 6436.49C7286.63 6305.67 7480.01 6150.1 7652.76 5973.13C7727 5880.97 7856.92 5250.57 7856.92 5250.57C7856.92 5250.57 7894.04 4119.69 7819.8 3730.57C7745.56 3341.45 7263.64 2729.61 6596.12 2655.37C5928.6 2581.13 5298.2 3118.73 5206.04 3544.97C5113.88 3971.21 5170.84 4508.81 5170.84 4508.81Z" fill="#999999" stroke="#263238" stroke-linecap="round" stroke-linejoin="round"/>
<path d="M6375.32 4805.77C6375.32 4805.77 6247.32 5064.97 6468.12 5139.21C6688.92 5213.45 6968.6 5194.89 7024.28 5083.53C7079.96 4972.17 6987.16 4842.89 6987.16 4842.89" stroke="#263238" stroke-linecap="round" stroke-linejoin="round"/>
<path d="M6153.24 5269.13C6153.24 5269.13 6616.6 5658.25 7247 5287.69" stroke="#263238" stroke-linecap="round" stroke-linejoin="round"/>
<path d="M6412.44 5621.13C6412.44 5621.13 6802.2 5843.85 7061.4 5584.01" stroke="#263238" stroke-linecap="round" stroke-linejoin="round"/>
<path d="M6190.36 4583.05C6241.61 4583.05 6283.16 4516.58 6283.16 4434.57C6283.16 4352.57 6241.61 4286.09 6190.36 4286.09C6139.11 4286.09 6097.56 4352.57 6097.56 4434.57C6097.56 4516.58 6139.11 4583.05 6190.36 4583.05Z" fill="#263238"/>
<path d="M7191.32 4416.01C7191.32 4497.93 7149.72 4564.49 7098.52 4564.49C7047.32 4564.49 7005.72 4500.49 7005.72 4416.01C7005.72 4331.53 7047.32 4268.17 7098.52 4268.17C7149.72 4268.17 7191.32 4334.09 7191.32 4416.01Z" fill="#263238"/>
<path d="M5930.52 4231.05C5930.52 4231.05 6023.32 4082.57 6378.52 4138.25" stroke="#263238" stroke-linecap="round" stroke-linejoin="round"/>
<path d="M6950.04 4156.81C6950.04 4156.81 7117.08 3896.97 7376.92 4156.81" stroke="#263238" stroke-linecap="round" stroke-linejoin="round"/>
<path d="M7821.72 3729.29C7797.64 3619.21 7755.93 3513.74 7698.2 3416.97C7676.61 3519.58 7669.07 3624.65 7675.8 3729.29C7702.68 3864.97 7798.04 4054.41 7798.04 4149.13C7798.04 4243.85 7783.96 4623.37 7851.8 4569.61C7858.52 4562.51 7863.94 4554.28 7867.8 4545.29C7872.04 4272.54 7856.64 3999.83 7821.72 3729.29Z" fill="#263238" stroke="#263238" stroke-linecap="round" stroke-linejoin="round"/>
<path d="M6889.88 2961.29C7008.9 2954.99 7127.35 2940.66 7244.44 2918.41C7055.35 2776.86 6832.5 2687.27 6598.04 2658.57C5930.52 2584.33 5300.12 3121.93 5207.96 3548.17C5115.8 3974.41 5170.84 4512.01 5170.84 4512.01C5170.84 4512.01 5318.04 4614.41 5372.44 4506.25C5426.84 4398.09 5372.44 4221.45 5426.84 4032.01C5481.24 3842.57 5561.88 3747.21 5575.32 3598.09C5588.76 3448.97 5494.04 3232.65 5548.44 3110.41C5602.84 2988.17 5941.4 2758.41 6158.36 2839.69C6391.79 2928.1 6640.41 2969.43 6889.88 2961.29Z" fill="#263238" stroke="#263238" stroke-linecap="round" stroke-linejoin="round"/>
</svg>
