<svg width="50" height="50" viewBox="0 0 50 50" fill="none" xmlns="http://www.w3.org/2000/svg">
<g clip-path="url(#clip0_541_83)">
<path fill-rule="evenodd" clip-rule="evenodd" d="M22.3214 5.35678C17.8222 5.35678 13.5073 7.14409 10.3259 10.3255C7.14445 13.5069 5.35714 17.8219 5.35714 22.3211C5.35714 26.8203 7.14445 31.1352 10.3259 34.3166C13.5073 37.4981 17.8222 39.2854 22.3214 39.2854C26.8206 39.2854 31.1356 37.4981 34.317 34.3166C37.4984 31.1352 39.2857 26.8203 39.2857 22.3211C39.2857 17.8219 37.4984 13.5069 34.317 10.3255C31.1356 7.14409 26.8206 5.35678 22.3214 5.35678ZM2.12202e-07 22.3211C0.000673076 18.8022 0.833275 15.3334 2.42987 12.1976C4.02646 9.06175 6.34182 6.34784 9.18701 4.27726C12.0322 2.20668 15.3266 0.838107 18.8014 0.283199C22.2763 -0.271709 25.8331 0.00277227 29.1816 1.08425C32.5302 2.16572 35.5756 4.02355 38.0694 6.50614C40.5632 8.98874 42.4348 12.0258 43.5314 15.3694C44.6279 18.713 44.9184 22.2686 44.3792 25.7459C43.84 29.2232 42.4863 32.5237 40.4286 35.3782L48.9536 43.9032C49.6041 44.5768 49.9641 45.4789 49.956 46.4154C49.9478 47.3518 49.5722 48.2475 48.9101 48.9097C48.2479 49.5719 47.3521 49.9475 46.4157 49.9556C45.4793 49.9638 44.5772 49.6038 43.9036 48.9532L35.3786 40.4282C32.0449 42.8325 28.1122 44.2697 24.0138 44.5813C19.9154 44.893 15.8105 44.0669 12.1517 42.1943C8.49283 40.3216 5.42208 37.4751 3.27792 33.9685C1.13375 30.4619 -0.000566442 26.4313 2.12202e-07 22.3211ZM19.4214 10.8211C18.9478 10.8211 18.4936 11.0092 18.1587 11.3441C17.8239 11.679 17.6357 12.1332 17.6357 12.6068V17.6282H12.6071C12.1335 17.6282 11.6793 17.8163 11.3445 18.1512C11.0096 18.4861 10.8214 18.9403 10.8214 19.4139V25.2175C10.8214 25.6911 11.0096 26.1453 11.3445 26.4802C11.6793 26.8151 12.1335 27.0032 12.6071 27.0032H17.6286V32.0354C17.6286 32.509 17.8167 32.9632 18.1516 33.298C18.4865 33.6329 18.9407 33.8211 19.4143 33.8211H25.2179C25.6915 33.8211 26.1457 33.6329 26.4805 33.298C26.8154 32.9632 27.0036 32.509 27.0036 32.0354V27.0068H32.0357C32.5093 27.0068 32.9635 26.8186 33.2984 26.4838C33.6333 26.1489 33.8214 25.6947 33.8214 25.2211V19.4175C33.8214 18.9439 33.6333 18.4897 33.2984 18.1548C32.9635 17.8199 32.5093 17.6318 32.0357 17.6318H27.0107V12.6104C27.0107 12.1368 26.8226 11.6826 26.4877 11.3477C26.1528 11.0128 25.6986 10.8246 25.225 10.8246L19.4214 10.8211Z" fill="black"/>
</g>
<defs>
<clipPath id="clip0_541_83">
<rect width="50" height="50" fill="white"/>
</clipPath>
</defs>
</svg>
